<?xml version="1.0" standalone="no"?><!DOCTYPE svg PUBLIC "-//W3C//DTD SVG 1.1//EN" "http://www.w3.org/Graphics/SVG/1.1/DTD/svg11.dtd">
<svg t="1613451532571" class="icon" viewBox="0 0 1024 1024" version="1.1" xmlns="http://www.w3.org/2000/svg" p-id="15151" xmlns:xlink="http://www.w3.org/1999/xlink" width="1024" height="1024"><defs>
    <style type="text/css"></style></defs><path d="M291.06546788 774.35975681a110.46726541 110.46726541 0 0 1 102.73455724 69.70484431L393.41339055 843.40179753 1009.1026963 843.40179753v82.85044938l-615.63407298 0.05523406 0.3314018-0.77327172a110.46726541 110.46726541 0 0 1-205.46911447 0l0.3314018 0.77327172L14.8973037 926.25224691V843.40179753h173.76500875l-0.27616774 0.66280359A110.46726541 110.46726541 0 0 1 291.06546788 774.35975681z m0 55.23363205a55.23363335 55.23363335 0 1 0 0 110.46726672 55.23363335 55.23363335 0 0 0 0-110.46726672z m441.86906424-441.86906294A110.46726541 110.46726541 0 0 1 835.39292033 456.76636665H1009.1026963v82.85044937l-173.76500875 0.05523408a110.46726541 110.46726541 0 0 1-204.80631087 0L14.8973037 539.61681602V456.76636665h615.57883891A110.46726541 110.46726541 0 0 1 732.93453212 387.72432592z m0-400.44383825A110.46726541 110.46726541 0 0 1 839.92207867 70.13093706H1009.1026963v82.85044937l-180.50351282 0.05523278a110.46726541 110.46726541 0 0 1-191.32930401 0L14.8973037 152.98138643V70.13093706h611.04968059A110.46726541 110.46726541 0 0 1 732.93453212-12.71951233z" p-id="15152"></path>
</svg>