<?xml version="1.0" encoding="UTF-8"?>
<svg width="50px" height="50px" viewBox="0 0 50 50" version="1.1" xmlns="http://www.w3.org/2000/svg" xmlns:xlink="http://www.w3.org/1999/xlink">
    <title>编组 12</title>
    <g id="页面-2" stroke="none" stroke-width="1" fill="none" fill-rule="evenodd">
        <g id="画板" transform="translate(-350.000000, -85.000000)">
            <g id="编组-12" transform="translate(350.000000, 85.000000)">
                <g id="编组-5备份" transform="translate(25.000000, 25.000000) rotate(-90.000000) translate(-25.000000, -25.000000) " fill="#FFFFFF" stroke="#F2F2F2">
                    <circle id="椭圆形" cx="25" cy="25" r="24.5"></circle>
                </g>
                <path d="M28.3523137,20.107451 C28.407316,20.0512653 28.4826288,20.0195992 28.5612549,20.0195992 C28.639881,20.0195992 28.7151939,20.0512653 28.7701961,20.107451 L34.4486275,25.662902 L34.4661961,25.6792157 L35.3722353,26.5664314 C35.4123921,26.6078431 35.4763921,26.6831372 35.5642353,26.7960784 C35.8152157,27.2164706 35.7499608,27.5929412 35.3722353,27.9254902 L14.2798431,27.9292549 C14.1254902,27.9091765 14,27.5866667 14,27.4272941 L14,26.123451 C14,25.9578039 14.1317647,25.8222745 14.2961569,25.8222745 L31.9149804,25.8222745 L27.4462745,21.451451 C27.3311812,21.333488 27.3311812,21.1452571 27.4462745,21.0272941 L28.3523137,20.107451 Z" id="路径" stroke="#000000" stroke-width="2" fill="#000000" fill-rule="nonzero"></path>
            </g>
        </g>
    </g>
</svg>