<?xml version="1.0" standalone="no"?><!DOCTYPE svg PUBLIC "-//W3C//DTD SVG 1.1//EN" "http://www.w3.org/Graphics/SVG/1.1/DTD/svg11.dtd"><svg t="1613702358566" class="icon" viewBox="0 0 1109 1024" version="1.1" xmlns="http://www.w3.org/2000/svg" p-id="2138" xmlns:xlink="http://www.w3.org/1999/xlink" width="216.6015625" height="200"><defs><style type="text/css"></style></defs><path d="M1082.9824 289.553067L166.9632 717.824 24.849067 412.552533 894.976 6.2464c26.231467-13.175467 56.832 0 67.754667 24.149333l120.251733 259.157334z" fill="#343843" p-id="2139"></path><path d="M482.696533 175.9232l-8.738133-67.805867c-2.184533-20.343467-17.476267-33.911467-37.137067-33.911466H41.4208C21.76 74.205867 4.283733 92.296533 4.283733 112.64v872.5504c0 20.343467 17.476267 38.417067 37.137067 38.417067h1017.992533c19.6608 0 37.137067-18.090667 37.137067-38.417067v-736.938667c0-20.3264-17.476267-38.4-37.137067-38.4H519.8336c-19.6608 0-34.952533-13.585067-37.137067-33.928533z" fill="#1E2026" p-id="2140"></path></svg>