<?xml version="1.0" standalone="no"?><!DOCTYPE svg PUBLIC "-//W3C//DTD SVG 1.1//EN" "http://www.w3.org/Graphics/SVG/1.1/DTD/svg11.dtd"><svg t="1610443203724" class="icon" viewBox="0 0 1024 1024" version="1.1" xmlns="http://www.w3.org/2000/svg" p-id="4767" xmlns:xlink="http://www.w3.org/1999/xlink" width="200" height="200"><defs><style type="text/css"></style></defs><path d="M784.0173725 166.70178406c29.28372375 20.82404344 55.31679656 44.41750312 78.09085875 70.76830219 22.77870656 26.35823156 42.30025969 54.82627313 58.5674475 85.41062812 16.27183219 30.58528406 28.63433625 62.96172469 37.09587469 97.12560375 8.45968031 34.16388 12.68766281 68.81456719 12.68766281 103.95577875 0 60.52211062-11.55053906 117.29654437-34.65068719 170.33537719-23.10200625 53.03418844-54.339465 99.23727281-93.70865812 138.60553688-39.36919406 39.37383844-85.5722775 70.60665187-138.61018219 93.70865812-53.03325938 23.10107813-109.81326656 34.6553325-170.32887375 34.6553325-59.86900781 0-116.32385719-11.55425531-169.35804563-34.6553325C310.76393562 903.50966188 264.39827187 872.27684844 224.70577812 832.90301c-39.69713906-39.368265-70.93273875-85.57134937-93.70865812-138.60553688C108.2193425 641.25864031 96.83324 584.4832775 96.83324 523.96209594c0-34.48810875 4.06540312-68.32868812 12.20178375-101.51523563 8.13638062-33.1865475 19.6841325-64.748235 34.65068719-94.68599062 14.97027094-29.93125219 33.51542156-57.91341469 55.64102531-83.94091407 22.12467469-26.03307281 46.85154188-49.46023781 74.18617594-70.28335218 14.31809719-10.41341531 29.77053094-14.31716813 46.36566375-11.71590469 16.59048656 2.60776687 30.09383156 10.73857313 40.508175 24.4035675 10.41434438 13.67056875 14.31716813 28.959495 11.71590469 45.87978469-2.60776687 16.91936062-10.73857313 30.58342594-24.40263844 40.99962843-40.99962844 29.93125219-72.39873656 66.69825375-94.20011157 110.29914563-21.79487156 43.60089188-32.69416594 90.45336281-32.69416593 140.56020094 0 42.94778906 8.13080625 83.4624675 24.4035675 121.52917125 16.26718688 38.06763281 38.55351187 71.25325125 66.85897406 99.5605725 28.31382375 28.31196562 61.49944219 50.76087 99.567075 67.35600187 38.06856188 16.59048656 78.57487969 24.88944656 121.52917125 24.88944656 42.94778906 0 83.455035-8.29895906 121.52359687-24.88944656 38.06856188-16.59513187 71.25882563-39.04403531 99.56521782-67.35600187 28.30824937-28.30732031 50.75622469-61.49293969 67.35135656-99.5605725 16.59606094-38.06856188 24.88944656-78.58138219 24.88944656-121.52917125 0-50.75529563-11.70940125-98.75046469-35.13563718-143.97807469-23.43180938-45.22575281-56.29505719-82.4786325-98.58881438-111.76235625-14.31809719-9.76124156-22.93942781-23.10293531-25.86770719-40.02229687-2.9301375-16.92028969 0.48587906-32.53901906 10.24711969-46.85804532 9.76124156-13.66406531 23.10200625-21.96302531 40.02229688-24.8885175C754.08983656 153.52824219 769.70020437 156.9405425 784.0173725 166.70178406L784.0173725 166.70178406zM533.159885 526.89502062c-16.92121875 0-31.40096625-6.02006719-43.44017062-18.06020062-12.03920438-12.03827531-18.05927156-26.51895187-18.05927157-43.43924156L471.66044188 94.47027125c0-16.92028969 6.01913813-31.5616875 18.05927156-43.92512062 12.03920438-12.36436313 26.51895187-18.54515062 43.44017062-18.54515063 17.56689 0 32.37179531 6.1807875 44.41099969 18.54515063 12.03920438 12.36343406 18.0583425 27.00483094 18.0583425 43.92512062l0 370.92530625c0 16.91936062-6.01913813 31.40003719-18.0583425 43.43924156C565.53167938 520.87495344 550.72677406 526.89502062 533.159885 526.89502062L533.159885 526.89502062z" p-id="4768"></path></svg>