<?xml version="1.0" encoding="UTF-8"?>
<svg width="149px" height="50px" viewBox="0 0 149 50" version="1.1" xmlns="http://www.w3.org/2000/svg" xmlns:xlink="http://www.w3.org/1999/xlink">
    <title>Logo Pro Small 2</title>
    <defs>
        <polygon id="path-1" points="0 0 55.3190625 0 55.3190625 49.9999375 0 49.9999375"></polygon>
    </defs>
    <g id="H5" stroke="none" stroke-width="1" fill="none" fill-rule="evenodd">
        <g id="Logo-Pro-Small-2">
            <g id="编组" transform="translate(-0.000000, 0.000000)">
                <mask id="mask-2" fill="white">
                    <use xlink:href="#path-1"></use>
                </mask>
                <g id="Clip-2"></g>
                <path d="M43.7084375,25.9755625 C43.7053125,26.0418125 43.7040625,26.1093125 43.7003125,26.1749375 C43.6471875,26.3693125 43.4803125,26.5130625 43.2715625,26.5199375 C43.1990625,26.5049375 43.1259375,26.4886875 43.0528125,26.4724375 C42.5553125,26.3630625 42.0484375,26.2443125 41.5196875,26.1043125 C34.0484375,24.1305625 29.7240625,25.2899375 28.2571875,25.8518125 C28.2453125,25.8568125 28.2321875,25.8599375 28.2209375,25.8655625 C27.9459375,25.9868125 27.7396875,26.2343125 27.6790625,26.5355625 L27.6790625,26.9105625 L27.6790625,30.7743125 L27.6790625,31.1486875 C27.7653125,31.5768125 28.1440625,31.8993125 28.5971875,31.8993125 C28.6596875,31.8993125 28.7209375,31.8924375 28.7790625,31.8805625 C28.7909375,31.8774375 28.8009375,31.8743125 28.8128125,31.8718125 C31.0209375,31.2936875 36.1559375,30.3518125 41.5196875,32.2118125 L41.7240625,32.2811875 L41.7596875,32.2930625 C41.7690625,32.2961875 41.7796875,32.2993125 41.7896875,32.3024375 C41.9471875,32.3780625 42.0578125,32.5361875 42.0578125,32.7224375 C42.0578125,32.7524375 42.0465625,32.7780625 42.0415625,32.8061875 C42.0046875,32.8855625 41.9665625,32.9636875 41.9284375,33.0424375 C38.9171875,39.3705625 32.4746875,43.7499375 24.9996875,43.7499375 C14.6446875,43.7499375 6.2496875,35.3555625 6.2496875,24.9999375 C6.2496875,14.6443125 14.6446875,6.2499375 24.9996875,6.2499375 C32.3203125,6.2499375 38.6540625,10.4493125 41.7421875,16.5674375 C41.7778125,16.6155625 41.8034375,16.6686875 41.8190625,16.7286875 C41.8284375,16.7668125 41.8421875,16.8030625 41.8421875,16.8449375 C41.8421875,17.1036875 41.6328125,17.3136875 41.3734375,17.3136875 C41.3303125,17.3136875 41.2915625,17.2993125 41.2515625,17.2886875 C41.2296875,17.2824375 41.2059375,17.2818125 41.1846875,17.2718125 C34.1115625,15.4699375 29.9159375,16.4936875 28.3684375,17.0586875 C28.2940625,17.0861875 28.2309375,17.1105625 28.1696875,17.1355625 C27.9209375,17.2643125 27.7353125,17.4961875 27.6790625,17.7780625 L27.6790625,18.1524375 L27.6790625,22.0480625 L27.6790625,22.4224375 C27.7653125,22.8505625 28.1440625,23.1730625 28.5971875,23.1730625 C28.6109375,23.1730625 28.6234375,23.1693125 28.6371875,23.1686875 C28.7534375,23.1368125 28.8796875,23.1036875 29.0153125,23.0705625 C31.3228125,22.4911875 36.3121875,21.6561875 41.5196875,23.4618125 L41.7596875,23.5430625 C42.3165625,23.7274375 42.8690625,23.8768125 43.4171875,24.0049375 C43.4340625,24.0099375 43.4521875,24.0105625 43.4684375,24.0174375 C43.6109375,24.0799375 43.7084375,24.2136875 43.7346875,24.3718125 C43.7365625,24.4161875 43.7371875,24.4605625 43.7384375,24.5049375 C43.7428125,24.6699375 43.7496875,24.8343125 43.7496875,24.9999375 C43.7496875,25.3286875 43.7253125,25.6511875 43.7084375,25.9755625 M54.3803125,17.7799375 C54.3178125,17.7799375 54.2559375,17.7861875 54.1959375,17.7980625 C54.1365625,17.8168125 54.0771875,17.8355625 54.0121875,17.8549375 C53.0559375,18.1355625 51.5621875,18.4318125 49.5171875,18.4536875 C49.4921875,18.4543125 49.4671875,18.4543125 49.4415625,18.4549375 C49.2709375,18.4405625 49.1284375,18.3405625 49.0578125,18.1943125 C49.0434375,18.1643125 49.0371875,18.1318125 49.0303125,18.0986875 C45.8834375,7.1261875 35.4315625,-0.7588125 23.2728125,0.0580625 C10.9378125,0.8868125 0.9434375,10.8374375 0.0653125,23.1686875 C-0.9771875,37.8036875 10.5871875,49.9999375 24.9996875,49.9999375 C35.7740625,49.9999375 44.9515625,43.1830625 48.4659375,33.6286875 C48.4753125,33.5993125 48.4840625,33.5711875 48.4978125,33.5443125 C48.5703125,33.4061875 48.7071875,33.3105625 48.8715625,33.2968125 C48.8928125,33.2961875 48.9140625,33.2949375 48.9359375,33.2943125 C51.4540625,33.2205625 53.4803125,32.7568125 54.5296875,32.4593125 C54.6178125,32.4343125 54.6959375,32.4111875 54.7703125,32.3893125 C55.0796875,32.2493125 55.2978125,31.9468125 55.3190625,31.5899375 L55.3190625,31.4755625 L55.3190625,27.6405625 L55.3190625,27.3136875 C55.2415625,26.8680625 54.8553125,26.5280625 54.3871875,26.5280625 C54.3246875,26.5280625 54.2646875,26.5355625 54.2059375,26.5461875 C54.1534375,26.5624375 54.0934375,26.5799375 54.0365625,26.5968125 C53.2334375,26.8355625 52.0459375,27.0874375 50.4590625,27.1755625 C50.4278125,27.1774375 50.3953125,27.1786875 50.3640625,27.1799375 C50.1278125,27.1605625 49.9428125,26.9718125 49.9353125,26.7324375 C49.9359375,26.7186875 49.9371875,26.7049375 49.9378125,26.6911875 C49.9746875,26.1318125 49.9996875,25.5693125 49.9996875,24.9999375 C49.9996875,24.9830625 49.9990625,24.9661875 49.9990625,24.9486875 C49.9990625,24.9218125 49.9984375,24.8961875 49.9984375,24.8693125 C50.0146875,24.6730625 50.1496875,24.5161875 50.3340625,24.4636875 C50.3921875,24.4586875 50.4509375,24.4536875 50.5084375,24.4486875 C52.2709375,24.2786875 53.6778125,23.9493125 54.5028125,23.7168125 C54.6109375,23.6861875 54.7071875,23.6580625 54.7946875,23.6318125 C55.0846875,23.4911875 55.2884375,23.2074375 55.3190625,22.8718125 L55.3190625,22.7024375 L55.3190625,18.7424375 L55.3190625,18.6980625 C55.3078125,18.1893125 54.8928125,17.7799375 54.3803125,17.7799375" id="Fill-1" fill="#000000" mask="url(#mask-2)"></path>
            </g>
            <g id="编组-2" transform="translate(75.625000, 10.000000)">
                <rect id="矩形" fill="#062EF5" x="0" y="0" width="72.5" height="30.625" rx="1"></rect>
                <path d="M23.00875,22.4175 L23.00875,17.0625 L25.26125,17.0625 C26.4795833,17.0625 27.4995833,16.8429167 28.32125,16.40375 C29.1429167,15.9645833 29.7520833,15.3872917 30.14875,14.671875 C30.5454167,13.9564583 30.74375,13.1666667 30.74375,12.3025 C30.74375,11.3675 30.5383333,10.53875 30.1275,9.81625 C29.7166667,9.09375 29.1004167,8.52708333 28.27875,8.11625 C27.4570833,7.70541667 26.45125,7.5 25.26125,7.5 L25.26125,7.5 L19.375,7.5 L19.375,22.4175 L23.00875,22.4175 Z M24.985,14.1725 L23.00875,14.1725 L23.00875,10.4325 L24.985,10.4325 C25.6791667,10.4325 26.19625,10.5954167 26.53625,10.92125 C26.87625,11.2470833 27.04625,11.7075 27.04625,12.3025 C27.04625,12.8975 26.87625,13.3579167 26.53625,13.68375 C26.19625,14.0095833 25.6791667,14.1725 24.985,14.1725 L24.985,14.1725 Z M36.26875,22.4175 L36.26875,16.91375 C36.26875,15.93625 36.4954167,15.2527083 36.94875,14.863125 C37.4020833,14.4735417 38.0820833,14.27875 38.98875,14.27875 L38.98875,14.27875 L39.9875,14.27875 L39.9875,10.4325 C39.2083333,10.4325 38.5,10.6202083 37.8625,10.995625 C37.225,11.3710417 36.69375,11.8845833 36.26875,12.53625 L36.26875,12.53625 L36.26875,10.56 L32.635,10.56 L32.635,22.4175 L36.26875,22.4175 Z M47.1275,22.5875 C48.2891667,22.5875 49.3410417,22.3395833 50.283125,21.84375 C51.2252083,21.3479167 51.9689583,20.6360417 52.514375,19.708125 C53.0597917,18.7802083 53.3325,17.7070833 53.3325,16.48875 C53.3325,15.2704167 53.0633333,14.1972917 52.525,13.269375 C51.9866667,12.3414583 51.25,11.6295833 50.315,11.13375 C49.38,10.6379167 48.3316667,10.39 47.17,10.39 C46.0083333,10.39 44.96,10.6379167 44.025,11.13375 C43.09,11.6295833 42.3533333,12.3414583 41.815,13.269375 C41.2766667,14.1972917 41.0075,15.2704167 41.0075,16.48875 C41.0075,17.72125 41.273125,18.7979167 41.804375,19.71875 C42.335625,20.6395833 43.0652083,21.3479167 43.993125,21.84375 C44.9210417,22.3395833 45.9658333,22.5875 47.1275,22.5875 Z M47.1275,19.4425 C46.4333333,19.4425 45.8560417,19.1875 45.395625,18.6775 C44.9352083,18.1675 44.705,17.4379167 44.705,16.48875 C44.705,15.5254167 44.93875,14.7922917 45.40625,14.289375 C45.87375,13.7864583 46.4616667,13.535 47.17,13.535 C47.8641667,13.535 48.4485417,13.79 48.923125,14.3 C49.3977083,14.81 49.635,15.5395833 49.635,16.48875 C49.635,17.4379167 49.390625,18.1675 48.901875,18.6775 C48.413125,19.1875 47.8216667,19.4425 47.1275,19.4425 Z" id="Pro" fill="#FFFFFF" fill-rule="nonzero"></path>
            </g>
        </g>
    </g>
</svg>