<?xml version="1.0" encoding="UTF-8"?>
<svg width="184px" height="24px" viewBox="0 0 184 24" version="1.1" xmlns="http://www.w3.org/2000/svg" xmlns:xlink="http://www.w3.org/1999/xlink">
    <title>编组 10</title>
    <defs>
        <polygon id="path-1" points="0 0 26.55315 0 26.55315 23.99997 0 23.99997"></polygon>
        <polygon id="path-3" points="0.04734 0.20763 84.9255 0.20763 84.9255 15.00003 0.04734 15.00003"></polygon>
    </defs>
    <g id="Classic" stroke="none" stroke-width="1" fill="none" fill-rule="evenodd">
        <g id="Classic-Exchanges-Web" transform="translate(-20.000000, -20.000000)">
            <g id="编组-10" transform="translate(20.000000, 20.000000)">
                <g id="编组">
                    <g>
                        <mask id="mask-2" fill="white">
                            <use xlink:href="#path-1"></use>
                        </mask>
                        <g id="Clip-2"></g>
                        <path d="M20.98005,12.46827 C20.97855,12.50007 20.97795,12.53247 20.97615,12.56397 C20.95065,12.65727 20.87055,12.72627 20.77035,12.72957 C20.73555,12.72237 20.70045,12.71457 20.66535,12.70677 C20.42655,12.65427 20.18325,12.59727 19.92945,12.53007 C16.34325,11.58267 14.26755,12.13917 13.56345,12.40887 C13.55775,12.41127 13.55145,12.41277 13.54605,12.41547 C13.41405,12.47367 13.31505,12.59247 13.28595,12.73707 L13.28595,12.91707 L13.28595,14.77167 L13.28595,14.95137 C13.32735,15.15687 13.50915,15.31167 13.72665,15.31167 C13.75665,15.31167 13.78605,15.30837 13.81395,15.30267 C13.81965,15.30117 13.82445,15.29967 13.83015,15.29847 C14.89005,15.02097 17.35485,14.56887 19.92945,15.46167 L20.02755,15.49497 L20.04465,15.50067 C20.04915,15.50217 20.05425,15.50367 20.05905,15.50517 C20.13465,15.54147 20.18775,15.61737 20.18775,15.70677 C20.18775,15.72117 20.18235,15.73347 20.17995,15.74697 C20.16225,15.78507 20.14395,15.82257 20.12565,15.86037 C18.68025,18.89787 15.58785,20.99997 11.99985,20.99997 C7.02945,20.99997 2.99985,16.97067 2.99985,11.99997 C2.99985,7.02927 7.02945,2.99997 11.99985,2.99997 C15.51375,2.99997 18.55395,5.01567 20.03625,7.95237 C20.05335,7.97547 20.06565,8.00097 20.07315,8.02977 C20.07765,8.04807 20.08425,8.06547 20.08425,8.08557 C20.08425,8.20977 19.98375,8.31057 19.85925,8.31057 C19.83855,8.31057 19.81995,8.30367 19.80075,8.29857 C19.79025,8.29557 19.77885,8.29527 19.76865,8.29047 C16.37355,7.42557 14.35965,7.91697 13.61685,8.18817 C13.58115,8.20137 13.55085,8.21307 13.52145,8.22507 C13.40205,8.28687 13.31295,8.39817 13.28595,8.53347 L13.28595,8.71317 L13.28595,10.58307 L13.28595,10.76277 C13.32735,10.96827 13.50915,11.12307 13.72665,11.12307 C13.73325,11.12307 13.73925,11.12127 13.74585,11.12097 C13.80165,11.10567 13.86225,11.08977 13.92735,11.07387 C15.03495,10.79577 17.42985,10.39497 19.92945,11.26167 L20.04465,11.30067 C20.31195,11.38917 20.57715,11.46087 20.84025,11.52237 C20.84835,11.52477 20.85705,11.52507 20.86485,11.52837 C20.93325,11.55837 20.98005,11.62257 20.99265,11.69847 C20.99355,11.71977 20.99385,11.74107 20.99445,11.76237 C20.99655,11.84157 20.99985,11.92047 20.99985,11.99997 C20.99985,12.15777 20.98815,12.31257 20.98005,12.46827 M26.10255,8.53437 C26.07255,8.53437 26.04285,8.53737 26.01405,8.54307 C25.98555,8.55207 25.95705,8.56107 25.92585,8.57037 C25.46685,8.70507 24.74985,8.84727 23.76825,8.85777 C23.75625,8.85807 23.74425,8.85807 23.73195,8.85837 C23.65005,8.85147 23.58165,8.80347 23.54775,8.73327 C23.54085,8.71887 23.53785,8.70327 23.53455,8.68737 C22.02405,3.42057 17.00715,-0.36423 11.17095,0.02787 C5.25015,0.42567 0.45285,5.20197 0.03135,11.12097 C-0.46905,18.14577 5.08185,23.999979 11.99985,23.999979 C17.17155,23.999979 21.57675,20.72787 23.26365,16.14177 C23.26815,16.12767 23.27235,16.11417 23.27895,16.10127 C23.31375,16.03497 23.37945,15.98907 23.45835,15.98247 C23.46855,15.98217 23.47875,15.98157 23.48925,15.98127 C24.69795,15.94587 25.67055,15.72327 26.17425,15.58047 C26.21655,15.56847 26.25405,15.55737 26.28975,15.54687 C26.43825,15.47967 26.54295,15.33447 26.55315,15.16317 L26.55315,15.10827 L26.55315,13.26747 L26.55315,13.11057 C26.51595,12.89667 26.33055,12.73347 26.10585,12.73347 C26.07585,12.73347 26.04705,12.73707 26.01885,12.74217 C25.99365,12.74997 25.96485,12.75837 25.93755,12.76647 C25.55205,12.88107 24.98205,13.00197 24.22035,13.04427 C24.20535,13.04517 24.18975,13.04577 24.17475,13.04637 C24.06135,13.03707 23.97255,12.94647 23.96895,12.83157 C23.96925,12.82497 23.96985,12.81837 23.97015,12.81177 C23.98785,12.54327 23.99985,12.27327 23.99985,11.999979 C23.99985,11.99187 23.99955,11.98377 23.99955,11.97537 C23.99955,11.96247 23.99925,11.95017 23.99925,11.93727 C24.00705,11.84307 24.07185,11.76777 24.16035,11.74257 C24.18825,11.74017 24.21645,11.73777 24.24405,11.73537 C25.09005,11.65377 25.76535,11.49567 26.16135,11.38407 C26.21325,11.36937 26.25945,11.35587 26.30145,11.34327 C26.44065,11.27577 26.53845,11.13957 26.55315,10.97847 L26.55315,10.89717 L26.55315,8.99637 L26.55315,8.97507 C26.54775,8.73087 26.34855,8.53437 26.10255,8.53437" id="Fill-1" fill="#FFFFFF" mask="url(#mask-2)"></path>
                    </g>
                    <g transform="translate(35.700000, 6.000000)">
                        <mask id="mask-4" fill="white">
                            <use xlink:href="#path-3"></use>
                        </mask>
                        <g id="Clip-4"></g>
                        <path d="M79.56324,11.42763 L79.56324,5.71473 C79.76124,5.42523 80.02254,5.19543 80.34774,5.02533 C80.67264,4.85523 81.02304,4.77033 81.39894,4.77033 C81.81534,4.77033 82.11744,4.87683 82.30554,5.09013 C82.49334,5.30343 82.58724,5.64843 82.58724,6.12603 L82.58724,11.42763 L84.92574,11.42763 L84.92574,5.99643 C84.92574,5.08263 84.69444,4.37523 84.23244,3.87513 C83.77014,3.37473 83.11284,3.12483 82.25964,3.12483 C81.08664,3.12483 80.13954,3.54633 79.41864,4.38933 L79.16724,3.25443 L77.21724,3.25443 L77.21724,11.42763 L79.56324,11.42763 Z M71.15394,10.02603 C70.78284,10.02603 70.49604,9.93843 70.29324,9.76323 C70.08984,9.58803 69.98844,9.33303 69.98844,8.99763 C69.98844,8.59143 70.17234,8.27403 70.54074,8.04573 C70.90854,7.81713 71.42544,7.70283 72.09084,7.70283 L72.89064,7.70283 L72.89064,9.21093 C72.68214,9.45963 72.42444,9.65793 72.11754,9.80523 C71.81004,9.95223 71.48904,10.02603 71.15394,10.02603 L71.15394,10.02603 Z M70.55214,11.54943 C71.02944,11.54943 71.47764,11.45673 71.89644,11.27133 C72.31554,11.08593 72.69264,10.81563 73.02774,10.46013 L73.29444,11.42763 L75.22914,11.42763 L75.22914,6.42303 C75.22914,5.34153 74.92164,4.51623 74.30724,3.94743 C73.69284,3.37863 72.80904,3.09453 71.65674,3.09453 C71.13864,3.09453 70.58244,3.15393 69.98844,3.27333 C69.39444,3.39273 68.82804,3.56133 68.28984,3.78003 L68.78484,5.35683 C69.16044,5.19423 69.58194,5.06073 70.04934,4.95693 C70.51644,4.85253 70.92774,4.80063 71.28324,4.80063 C72.32424,4.80063 72.86004,5.27283 72.89064,6.21753 L72.89064,6.42303 L71.89284,6.42303 C70.60284,6.42303 69.59844,6.66153 68.88024,7.13913 C68.16144,7.61643 67.80234,8.28183 67.80234,9.13473 C67.80234,9.87123 68.04984,10.45773 68.54484,10.89453 C69.04014,11.33103 69.70884,11.54943 70.55214,11.54943 L70.55214,11.54943 Z M64.81644,6.42303 L61.51044,6.42303 C61.60194,5.84913 61.79604,5.42133 62.09334,5.13963 C62.39034,4.85793 62.79774,4.71693 63.31584,4.71693 C64.25004,4.71693 64.75014,5.28543 64.81644,6.42303 L64.81644,6.42303 Z M63.33114,11.5800898 C64.38204,11.58483 65.52714,11.30043 66.76644,10.72683 L66.20274,9.27183 C65.70504,9.48003 65.25054,9.63123 64.83924,9.72513 C64.42794,9.81903 64.01904,9.86613 63.61284,9.86613 C62.30274,9.86613 61.58664,9.17043 61.46484,7.77903 L66.96444,7.77903 L66.96444,7.24593 C66.96444,4.47813 65.74314,3.09453 63.30054,3.09453 C62.00034,3.09453 60.98994,3.46623 60.26904,4.21023 C59.54754,4.95423 59.18724,5.99133 59.18724,7.32183 C59.18724,8.65743 59.55534,9.70083 60.29184,10.45263 C61.02804,11.20413 62.04114,11.5800898 63.33114,11.5800898 L63.33114,11.5800898 Z M55.92714,11.54943 C56.32314,11.54943 56.73954,11.50383 57.17634,11.41233 C57.61284,11.32113 58.01934,11.19153 58.39494,11.02383 L58.02174,9.43203 C57.46314,9.68073 56.89194,9.80523 56.30784,9.80523 C55.59684,9.80523 55.05234,9.58923 54.67404,9.15783 C54.29544,8.72583 54.10674,8.11413 54.10674,7.32183 C54.10674,6.52443 54.29064,5.90763 54.65874,5.47113 C55.02684,5.03403 55.54854,4.81593 56.22414,4.81593 C56.74224,4.81593 57.27774,4.96053 57.83154,5.25003 L58.34934,3.70383 C57.60294,3.31773 56.81304,3.12483 55.98054,3.12483 C54.63444,3.12483 53.59374,3.49173 52.85724,4.22553 C52.12074,4.95903 51.75294,5.99133 51.75294,7.32183 C51.75294,8.68773 52.11084,9.73383 52.82694,10.46013 C53.54304,11.18613 54.57624,11.54943 55.92714,11.54943 L55.92714,11.54943 Z M45.38484,9.69843 C44.45034,9.69843 43.74354,9.37113 43.26354,8.71593 C42.78354,8.06073 42.54384,7.10343 42.54384,5.84433 C42.54384,4.60503 42.78114,3.66813 43.25604,3.03363 C43.73064,2.39853 44.44044,2.08143 45.38484,2.08143 C46.31934,2.08143 47.02644,2.40123 47.50644,3.04113 C47.98614,3.68103 48.22614,4.61523 48.22614,5.84433 C48.22614,7.10343 47.98614,8.06073 47.50644,8.71593 C47.02644,9.37113 46.31934,9.69843 45.38484,9.69843 L45.38484,9.69843 Z M45.38484,11.56473 C47.11134,11.56473 48.42654,11.07453 49.33074,10.09473 C50.23434,9.11433 50.68644,7.69743 50.68644,5.84433 C50.68644,4.03143 50.23194,2.63853 49.32294,1.66623 C48.41394,0.69363 47.10114,0.20763 45.38484,0.20763 C43.66854,0.20763 42.35574,0.69513 41.44674,1.67013 C40.53774,2.64513 40.08324,4.03623 40.08324,5.84433 C40.08324,7.70283 40.53264,9.12093 41.43174,10.09833 C42.33054,11.07573 43.64814,11.56473 45.38484,11.56473 L45.38484,11.56473 Z M33.20514,11.42763 L33.20514,5.71473 C33.40314,5.42523 33.66444,5.19543 33.98964,5.02533 C34.31454,4.85523 34.66494,4.77033 35.04084,4.77033 C35.45694,4.77033 35.75904,4.87683 35.94714,5.09013 C36.13494,5.30343 36.22914,5.64843 36.22914,6.12603 L36.22914,11.42763 L38.56764,11.42763 L38.56764,5.99643 C38.56764,5.08263 38.33634,4.37523 37.87434,3.87513 C37.41204,3.37473 36.75474,3.12483 35.90154,3.12483 C34.72854,3.12483 33.78144,3.54633 33.06024,4.38933 L32.80884,3.25443 L30.85884,3.25443 L30.85884,11.42763 L33.20514,11.42763 Z M27.12654,6.42303 L23.82054,6.42303 C23.91204,5.84913 24.10644,5.42133 24.40344,5.13963 C24.70044,4.85793 25.10784,4.71693 25.62594,4.71693 C26.56014,4.71693 27.06024,5.28543 27.12654,6.42303 L27.12654,6.42303 Z M25.64124,11.5800898 C26.69244,11.58483 27.83724,11.30043 29.07654,10.72683 L28.51284,9.27183 C28.01514,9.48003 27.56064,9.63123 27.14934,9.72513 C26.73804,9.81903 26.32914,9.86613 25.92294,9.86613 C24.61284,9.86613 23.89674,9.17043 23.77494,7.77903 L29.27454,7.77903 L29.27454,7.24593 C29.27454,4.47813 28.05324,3.09453 25.61064,3.09453 C24.31044,3.09453 23.30004,3.46623 22.57914,4.21023 C21.85764,4.95423 21.49734,5.99133 21.49734,7.32183 C21.49734,8.65743 21.86544,9.70083 22.60194,10.45263 C23.33814,11.20413 24.35124,11.5800898 25.64124,11.5800898 L25.64124,11.5800898 Z M15.94464,9.95763 C15.72594,9.95763 15.54084,9.94713 15.38844,9.92703 C15.23604,9.90663 15.00984,9.86073 14.71044,9.78993 L14.71044,6.08043 C14.84244,5.67393 15.05694,5.35893 15.35424,5.13573 C15.65124,4.91223 16.00764,4.80060636 16.42434,4.80060636 C17.56704,4.79553 18.13824,5.61573 18.13824,7.26093 C18.13824,8.14473 17.94894,8.81493 17.57064,9.27183 C17.19234,9.72903 16.65024,9.95763 15.94464,9.95763 L15.94464,9.95763 Z M14.71044,15.00003 L14.71044,11.38203 C15.19794,11.49363 15.65514,11.54943 16.08174,11.54943 C16.98534,11.54943 17.76744,11.37543 18.42774,11.02773 C19.08774,10.67973 19.59804,10.17843 19.95864,9.52323 C20.31924,8.86833 20.49954,8.08863 20.49954,7.18473 C20.49954,5.89503 20.18454,4.89963 19.55514,4.19883 C18.92514,3.49803 18.04434,3.14763 16.91184,3.14763 C16.41924,3.14763 15.98364,3.23283 15.60564,3.40293 C15.22704,3.57273 14.86524,3.84603 14.51994,4.22163 L14.16204,3.25443 L12.37194,3.25443 L12.37194,15.00003 L14.71044,15.00003 Z M5.34894,9.69843 C4.41444,9.69843 3.70734,9.37113 3.22764,8.71593 C2.74764,8.06073 2.50764,7.10343 2.50764,5.84433 C2.50764,4.60503 2.74494,3.66813 3.21984,3.03363 C3.69444,2.39853 4.40454,2.08143 5.34894,2.08143 C6.28314,2.08143 6.99054,2.40123 7.47024,3.04113 C7.95024,3.68103 8.19024,4.61523 8.19024,5.84433 C8.19024,7.10343 7.95024,8.06073 7.47024,8.71593 C6.99054,9.37113 6.28314,9.69843 5.34894,9.69843 L5.34894,9.69843 Z M5.34894,11.56473 C7.07544,11.56473 8.39064,11.07453 9.29454,10.09473 C10.19844,9.11433 10.65054,7.69743 10.65054,5.84433 C10.65054,4.03143 10.19574,2.63853 9.28704,1.66623 C8.37804,0.69363 7.06524,0.20763 5.34894,0.20763 C3.63234,0.20763 2.31954,0.69513 1.41084,1.67013 C0.50184,2.64513 0.04734,4.03623 0.04734,5.84433 C0.04734,7.70283 0.49674,9.12093 1.39554,10.09833 C2.29464,11.07573 3.61224,11.56473 5.34894,11.56473 L5.34894,11.56473 Z" id="Fill-3" fill="#FFFFFF" mask="url(#mask-4)"></path>
                    </g>
                </g>
                <g id="编组-2" transform="translate(129.900000, 4.800000)">
                    <rect id="矩形" fill="#062EF5" x="0" y="2.55795385e-15" width="53.76" height="14.7" rx="1"></rect>
                    <path d="M12.73875,11.1665625 C13.623125,11.1665625 14.3754687,10.9228125 14.9957812,10.4353125 C15.6160937,9.9478125 15.9996875,9.3275 16.1465625,8.574375 L16.1465625,8.574375 L14.4825,8.574375 C14.354375,8.90875 14.1364062,9.180625 13.8285937,9.39 C13.5207812,9.599375 13.1575,9.7040625 12.73875,9.7040625 C12.160625,9.7040625 11.6895312,9.51421875 11.3254687,9.13453125 C10.9614062,8.75484375 10.779375,8.2696875 10.779375,7.6790625 C10.779375,7.0978125 10.9621875,6.615 11.3278125,6.230625 C11.6934375,5.84625 12.16375,5.6540625 12.73875,5.6540625 C13.160625,5.6540625 13.5239062,5.76265625 13.8285937,5.97984375 C14.1332812,6.19703125 14.3325,6.4759375 14.42625,6.8165625 L14.42625,6.8165625 L16.07625,6.8165625 C15.979375,6.3196875 15.785625,5.87515625 15.495,5.48296875 C15.204375,5.09078125 14.82,4.77828125 14.341875,4.54546875 C13.86375,4.31265625 13.329375,4.19625 12.73875,4.19625 C12.054375,4.19625 11.441875,4.34859375 10.90125,4.65328125 C10.360625,4.95796875 9.94265625,5.37515625 9.64734375,5.90484375 C9.35203125,6.43453125 9.204375,7.0259375 9.204375,7.6790625 C9.204375,8.3384375 9.35125,8.9321875 9.645,9.4603125 C9.93875,9.9884375 10.3559375,10.4048437 10.8965625,10.7095312 C11.4371875,11.0142187 12.05125,11.1665625 12.73875,11.1665625 Z M19.245,11.04 L19.245,9.7321875 L19.0621875,9.7321875 C18.7809375,9.7321875 18.6403125,9.5790625 18.6403125,9.2728125 L18.6403125,9.2728125 L18.6403125,3.84 L17.1496875,3.84 L17.1496875,9.44625 C17.1496875,9.94625 17.2879687,10.336875 17.5645312,10.618125 C17.8410937,10.899375 18.2309375,11.04 18.7340625,11.04 L18.7340625,11.04 L19.245,11.04 Z M22.30125,11.1665625 C22.498125,11.1665625 22.6801562,11.1415625 22.8473438,11.0915625 C23.0145312,11.0415625 23.1535937,10.9767187 23.2645312,10.8970312 C23.3754687,10.8173437 23.4653125,10.743125 23.5340625,10.674375 C23.6028125,10.605625 23.6590625,10.5353125 23.7028125,10.4634375 L23.7028125,10.4634375 L23.7825,10.4634375 L23.7825,11.04 L25.2590625,11.04 L25.2590625,5.9728125 L23.773125,5.9728125 L23.773125,6.549375 L23.6934375,6.549375 C23.5778125,6.37125 23.3989062,6.20953125 23.1567187,6.06421875 C22.9145312,5.91890625 22.616875,5.84625 22.26375,5.84625 C21.5825,5.84625 21.0285937,6.0946875 20.6020312,6.5915625 C20.1754688,7.0884375 19.9621875,7.7353125 19.9621875,8.5321875 C19.9621875,9.3259375 20.1770312,9.9634375 20.6067187,10.4446875 C21.0364062,10.9259375 21.60125,11.1665625 22.30125,11.1665625 Z M22.63875,9.82125 C22.28875,9.82125 22.0059375,9.70015625 21.7903125,9.45796875 C21.5746875,9.21578125 21.466875,8.8978125 21.466875,8.5040625 C21.466875,8.1165625 21.5746875,7.8009375 21.7903125,7.5571875 C22.0059375,7.3134375 22.285625,7.1915625 22.629375,7.1915625 C22.973125,7.1915625 23.254375,7.31109375 23.473125,7.55015625 C23.691875,7.78921875 23.80125,8.1071875 23.80125,8.5040625 C23.80125,8.8853125 23.695,9.20015625 23.4825,9.44859375 C23.27,9.69703125 22.98875,9.82125 22.63875,9.82125 Z M28.235625,11.1665625 C28.93875,11.1665625 29.485625,11.0103125 29.87625,10.6978125 C30.266875,10.3853125 30.4621875,9.9775 30.4621875,9.474375 C30.4621875,9.23375 30.4285937,9.02203125 30.3614062,8.83921875 C30.2942187,8.65640625 30.2035937,8.5103125 30.0895312,8.4009375 C29.9754687,8.2915625 29.8442187,8.19859375 29.6957812,8.12203125 C29.5473437,8.04546875 29.3910937,7.98921875 29.2270312,7.95328125 C29.0629687,7.91734375 28.8996875,7.886875 28.7371875,7.861875 C28.5746875,7.836875 28.4192187,7.81578125 28.2707812,7.79859375 C28.1223437,7.78140625 27.9910937,7.75875 27.8770312,7.730625 C27.7629687,7.7025 27.6723437,7.66109375 27.6051562,7.60640625 C27.5379687,7.55171875 27.504375,7.480625 27.504375,7.393125 C27.504375,7.25875 27.5715625,7.15015625 27.7059375,7.06734375 C27.8403125,6.98453125 28.02,6.943125 28.245,6.943125 C28.4825,6.943125 28.6684375,6.98921875 28.8028125,7.08140625 C28.9371875,7.17359375 29.016875,7.299375 29.041875,7.45875 L29.041875,7.45875 L30.32625,7.45875 C30.295,6.943125 30.0903125,6.54546875 29.7121875,6.26578125 C29.3340625,5.98609375 28.845,5.84625 28.245,5.84625 C27.595,5.84625 27.0848437,6.00171875 26.7145312,6.31265625 C26.3442187,6.62359375 26.1590625,7.005625 26.1590625,7.45875 C26.1590625,7.718125 26.2004687,7.94390625 26.2832812,8.13609375 C26.3660937,8.32828125 26.4739062,8.4759375 26.6067187,8.5790625 C26.7395312,8.6821875 26.891875,8.76890625 27.06375,8.83921875 C27.235625,8.90953125 27.4114062,8.9571875 27.5910937,8.9821875 C27.7707812,9.0071875 27.9465625,9.03453125 28.1184375,9.06421875 C28.2903125,9.09390625 28.4426562,9.12203125 28.5754687,9.14859375 C28.7082812,9.17515625 28.8160937,9.22203125 28.8989062,9.28921875 C28.9817187,9.35640625 29.023125,9.4446875 29.023125,9.5540625 C29.023125,9.6978125 28.9551562,9.811875 28.8192187,9.89625 C28.6832812,9.980625 28.491875,10.0228125 28.245,10.0228125 C27.998125,10.0228125 27.8028125,9.97671875 27.6590625,9.88453125 C27.5153125,9.79234375 27.4340625,9.65875 27.4153125,9.48375 L27.4153125,9.48375 L26.0653125,9.48375 C26.0809375,10.011875 26.2692187,10.424375 26.6301562,10.72125 C26.9910937,11.018125 27.52625,11.1665625 28.235625,11.1665625 Z M33.3309375,11.1665625 C34.0340625,11.1665625 34.5809375,11.0103125 34.9715625,10.6978125 C35.3621875,10.3853125 35.5575,9.9775 35.5575,9.474375 C35.5575,9.23375 35.5239062,9.02203125 35.4567187,8.83921875 C35.3895312,8.65640625 35.2989062,8.5103125 35.1848437,8.4009375 C35.0707812,8.2915625 34.9395312,8.19859375 34.7910937,8.12203125 C34.6426562,8.04546875 34.4864062,7.98921875 34.3223437,7.95328125 C34.1582812,7.91734375 33.995,7.886875 33.8325,7.861875 C33.67,7.836875 33.5145312,7.81578125 33.3660937,7.79859375 C33.2176562,7.78140625 33.0864062,7.75875 32.9723437,7.730625 C32.8582812,7.7025 32.7676562,7.66109375 32.7004687,7.60640625 C32.6332812,7.55171875 32.5996875,7.480625 32.5996875,7.393125 C32.5996875,7.25875 32.666875,7.15015625 32.80125,7.06734375 C32.935625,6.98453125 33.1153125,6.943125 33.3403125,6.943125 C33.5778125,6.943125 33.76375,6.98921875 33.898125,7.08140625 C34.0325,7.17359375 34.1121875,7.299375 34.1371875,7.45875 L34.1371875,7.45875 L35.4215625,7.45875 C35.3903125,6.943125 35.185625,6.54546875 34.8075,6.26578125 C34.429375,5.98609375 33.9403125,5.84625 33.3403125,5.84625 C32.6903125,5.84625 32.1801562,6.00171875 31.8098437,6.31265625 C31.4395312,6.62359375 31.254375,7.005625 31.254375,7.45875 C31.254375,7.718125 31.2957812,7.94390625 31.3785937,8.13609375 C31.4614062,8.32828125 31.5692187,8.4759375 31.7020312,8.5790625 C31.8348437,8.6821875 31.9871875,8.76890625 32.1590625,8.83921875 C32.3309375,8.90953125 32.5067187,8.9571875 32.6864062,8.9821875 C32.8660937,9.0071875 33.041875,9.03453125 33.21375,9.06421875 C33.385625,9.09390625 33.5379687,9.12203125 33.6707812,9.14859375 C33.8035937,9.17515625 33.9114062,9.22203125 33.9942187,9.28921875 C34.0770312,9.35640625 34.1184375,9.4446875 34.1184375,9.5540625 C34.1184375,9.6978125 34.0504687,9.811875 33.9145312,9.89625 C33.7785937,9.980625 33.5871875,10.0228125 33.3403125,10.0228125 C33.0934375,10.0228125 32.898125,9.97671875 32.754375,9.88453125 C32.610625,9.79234375 32.529375,9.65875 32.510625,9.48375 L32.510625,9.48375 L31.160625,9.48375 C31.17625,10.011875 31.3645312,10.424375 31.7254687,10.72125 C32.0864062,11.018125 32.6215625,11.1665625 33.3309375,11.1665625 Z M37.2825,5.405625 C37.541875,5.405625 37.7520312,5.33296875 37.9129687,5.18765625 C38.0739062,5.04234375 38.154375,4.84625 38.154375,4.599375 C38.154375,4.3525 38.0739062,4.15640625 37.9129687,4.01109375 C37.7520312,3.86578125 37.541875,3.793125 37.2825,3.793125 C37.023125,3.793125 36.8121875,3.8665625 36.6496875,4.0134375 C36.4871875,4.1603125 36.4059375,4.355625 36.4059375,4.599375 C36.4059375,4.843125 36.4871875,5.0384375 36.6496875,5.1853125 C36.8121875,5.3321875 37.023125,5.405625 37.2825,5.405625 Z M38.0325,11.04 L38.0325,5.9728125 L36.541875,5.9728125 L36.541875,11.04 L38.0325,11.04 Z M41.52,11.1665625 C42.210625,11.1665625 42.7864062,10.9782813 43.2473437,10.6017187 C43.7082812,10.2251562 43.9809375,9.73375 44.0653125,9.1275 L44.0653125,9.1275 L42.5465625,9.1275 C42.4809375,9.33375 42.3559375,9.5009375 42.1715625,9.6290625 C41.9871875,9.7571875 41.773125,9.82125 41.529375,9.82125 C41.173125,9.82125 40.885625,9.69625 40.666875,9.44625 C40.448125,9.19625 40.33875,8.8821875 40.33875,8.5040625 C40.33875,8.1290625 40.4465625,7.8165625 40.6621875,7.5665625 C40.8778125,7.3165625 41.16375,7.1915625 41.52,7.1915625 C41.77625,7.1915625 41.9973437,7.2603125 42.1832812,7.3978125 C42.3692187,7.5353125 42.4965625,7.715 42.5653125,7.936875 L42.5653125,7.936875 L44.0746875,7.936875 C44.0028125,7.315 43.7325,6.81109375 43.26375,6.42515625 C42.795,6.03921875 42.210625,5.84625 41.510625,5.84625 C40.979375,5.84625 40.5090625,5.96421875 40.0996875,6.20015625 C39.6903125,6.43609375 39.3770312,6.75484375 39.1598437,7.15640625 C38.9426562,7.55796875 38.8340625,8.0071875 38.8340625,8.5040625 C38.8340625,8.9978125 38.9426562,9.44625 39.1598437,9.849375 C39.3770312,10.2525 39.691875,10.5728125 40.104375,10.8103125 C40.516875,11.0478125 40.98875,11.1665625 41.52,11.1665625 Z" id="Classic" fill="#FFFFFF" fill-rule="nonzero"></path>
                </g>
            </g>
        </g>
    </g>
</svg>