<?xml version="1.0" encoding="UTF-8"?>
<svg width="344px" height="50px" viewBox="0 0 344 50" version="1.1" xmlns="http://www.w3.org/2000/svg" xmlns:xlink="http://www.w3.org/1999/xlink">
    <title>编组 3</title>
    <defs>
        <polygon id="path-1" points="0 0 55.3190625 0 55.3190625 49.9999375 0 49.9999375"></polygon>
        <polygon id="path-3" points="0.098625 0.4325625 176.928125 0.4325625 176.928125 31.2500625 0.098625 31.2500625"></polygon>
    </defs>
    <g id="页面-2" stroke="none" stroke-width="1" fill="none" fill-rule="evenodd">
        <g id="H5-白" transform="translate(-30.000000, -128.000000)">
            <g id="编组-3" transform="translate(30.000000, 128.000000)">
                <g id="编组">
                    <g>
                        <mask id="mask-2" fill="white">
                            <use xlink:href="#path-1"></use>
                        </mask>
                        <g id="Clip-2"></g>
                        <path d="M43.7084375,25.9755625 C43.7053125,26.0418125 43.7040625,26.1093125 43.7003125,26.1749375 C43.6471875,26.3693125 43.4803125,26.5130625 43.2715625,26.5199375 C43.1990625,26.5049375 43.1259375,26.4886875 43.0528125,26.4724375 C42.5553125,26.3630625 42.0484375,26.2443125 41.5196875,26.1043125 C34.0484375,24.1305625 29.7240625,25.2899375 28.2571875,25.8518125 C28.2453125,25.8568125 28.2321875,25.8599375 28.2209375,25.8655625 C27.9459375,25.9868125 27.7396875,26.2343125 27.6790625,26.5355625 L27.6790625,26.9105625 L27.6790625,30.7743125 L27.6790625,31.1486875 C27.7653125,31.5768125 28.1440625,31.8993125 28.5971875,31.8993125 C28.6596875,31.8993125 28.7209375,31.8924375 28.7790625,31.8805625 C28.7909375,31.8774375 28.8009375,31.8743125 28.8128125,31.8718125 C31.0209375,31.2936875 36.1559375,30.3518125 41.5196875,32.2118125 L41.7240625,32.2811875 L41.7596875,32.2930625 C41.7690625,32.2961875 41.7796875,32.2993125 41.7896875,32.3024375 C41.9471875,32.3780625 42.0578125,32.5361875 42.0578125,32.7224375 C42.0578125,32.7524375 42.0465625,32.7780625 42.0415625,32.8061875 C42.0046875,32.8855625 41.9665625,32.9636875 41.9284375,33.0424375 C38.9171875,39.3705625 32.4746875,43.7499375 24.9996875,43.7499375 C14.6446875,43.7499375 6.2496875,35.3555625 6.2496875,24.9999375 C6.2496875,14.6443125 14.6446875,6.2499375 24.9996875,6.2499375 C32.3203125,6.2499375 38.6540625,10.4493125 41.7421875,16.5674375 C41.7778125,16.6155625 41.8034375,16.6686875 41.8190625,16.7286875 C41.8284375,16.7668125 41.8421875,16.8030625 41.8421875,16.8449375 C41.8421875,17.1036875 41.6328125,17.3136875 41.3734375,17.3136875 C41.3303125,17.3136875 41.2915625,17.2993125 41.2515625,17.2886875 C41.2296875,17.2824375 41.2059375,17.2818125 41.1846875,17.2718125 C34.1115625,15.4699375 29.9159375,16.4936875 28.3684375,17.0586875 C28.2940625,17.0861875 28.2309375,17.1105625 28.1696875,17.1355625 C27.9209375,17.2643125 27.7353125,17.4961875 27.6790625,17.7780625 L27.6790625,18.1524375 L27.6790625,22.0480625 L27.6790625,22.4224375 C27.7653125,22.8505625 28.1440625,23.1730625 28.5971875,23.1730625 C28.6109375,23.1730625 28.6234375,23.1693125 28.6371875,23.1686875 C28.7534375,23.1368125 28.8796875,23.1036875 29.0153125,23.0705625 C31.3228125,22.4911875 36.3121875,21.6561875 41.5196875,23.4618125 L41.7596875,23.5430625 C42.3165625,23.7274375 42.8690625,23.8768125 43.4171875,24.0049375 C43.4340625,24.0099375 43.4521875,24.0105625 43.4684375,24.0174375 C43.6109375,24.0799375 43.7084375,24.2136875 43.7346875,24.3718125 C43.7365625,24.4161875 43.7371875,24.4605625 43.7384375,24.5049375 C43.7428125,24.6699375 43.7496875,24.8343125 43.7496875,24.9999375 C43.7496875,25.3286875 43.7253125,25.6511875 43.7084375,25.9755625 M54.3803125,17.7799375 C54.3178125,17.7799375 54.2559375,17.7861875 54.1959375,17.7980625 C54.1365625,17.8168125 54.0771875,17.8355625 54.0121875,17.8549375 C53.0559375,18.1355625 51.5621875,18.4318125 49.5171875,18.4536875 C49.4921875,18.4543125 49.4671875,18.4543125 49.4415625,18.4549375 C49.2709375,18.4405625 49.1284375,18.3405625 49.0578125,18.1943125 C49.0434375,18.1643125 49.0371875,18.1318125 49.0303125,18.0986875 C45.8834375,7.1261875 35.4315625,-0.7588125 23.2728125,0.0580625 C10.9378125,0.8868125 0.9434375,10.8374375 0.0653125,23.1686875 C-0.9771875,37.8036875 10.5871875,49.9999375 24.9996875,49.9999375 C35.7740625,49.9999375 44.9515625,43.1830625 48.4659375,33.6286875 C48.4753125,33.5993125 48.4840625,33.5711875 48.4978125,33.5443125 C48.5703125,33.4061875 48.7071875,33.3105625 48.8715625,33.2968125 C48.8928125,33.2961875 48.9140625,33.2949375 48.9359375,33.2943125 C51.4540625,33.2205625 53.4803125,32.7568125 54.5296875,32.4593125 C54.6178125,32.4343125 54.6959375,32.4111875 54.7703125,32.3893125 C55.0796875,32.2493125 55.2978125,31.9468125 55.3190625,31.5899375 L55.3190625,31.4755625 L55.3190625,27.6405625 L55.3190625,27.3136875 C55.2415625,26.8680625 54.8553125,26.5280625 54.3871875,26.5280625 C54.3246875,26.5280625 54.2646875,26.5355625 54.2059375,26.5461875 C54.1534375,26.5624375 54.0934375,26.5799375 54.0365625,26.5968125 C53.2334375,26.8355625 52.0459375,27.0874375 50.4590625,27.1755625 C50.4278125,27.1774375 50.3953125,27.1786875 50.3640625,27.1799375 C50.1278125,27.1605625 49.9428125,26.9718125 49.9353125,26.7324375 C49.9359375,26.7186875 49.9371875,26.7049375 49.9378125,26.6911875 C49.9746875,26.1318125 49.9996875,25.5693125 49.9996875,24.9999375 C49.9996875,24.9830625 49.9990625,24.9661875 49.9990625,24.9486875 C49.9990625,24.9218125 49.9984375,24.8961875 49.9984375,24.8693125 C50.0146875,24.6730625 50.1496875,24.5161875 50.3340625,24.4636875 C50.3921875,24.4586875 50.4509375,24.4536875 50.5084375,24.4486875 C52.2709375,24.2786875 53.6778125,23.9493125 54.5028125,23.7168125 C54.6109375,23.6861875 54.7071875,23.6580625 54.7946875,23.6318125 C55.0846875,23.4911875 55.2884375,23.2074375 55.3190625,22.8718125 L55.3190625,22.7024375 L55.3190625,18.7424375 L55.3190625,18.6980625 C55.3078125,18.1893125 54.8928125,17.7799375 54.3803125,17.7799375" id="Fill-1" fill="#000000" mask="url(#mask-2)"></path>
                    </g>
                    <g transform="translate(74.375000, 12.500000)">
                        <mask id="mask-4" fill="white">
                            <use xlink:href="#path-3"></use>
                        </mask>
                        <g id="Clip-4"></g>
                        <path d="M165.75675,23.8075625 L165.75675,11.9056875 C166.16925,11.3025625 166.713625,10.8238125 167.391125,10.4694375 C168.068,10.1150625 168.798,9.9381875 169.581125,9.9381875 C170.448625,9.9381875 171.078,10.1600625 171.469875,10.6044375 C171.861125,11.0488125 172.05675,11.7675625 172.05675,12.7625625 L172.05675,23.8075625 L176.928625,23.8075625 L176.928625,12.4925625 C176.928625,10.5888125 176.44675,9.1150625 175.48425,8.0731875 C174.521125,7.0306875 173.15175,6.5100625 171.37425,6.5100625 C168.9305,6.5100625 166.957375,7.3881875 165.4555,9.1444375 L164.93175,6.7800625 L160.86925,6.7800625 L160.86925,23.8075625 L165.75675,23.8075625 Z M148.237375,20.8875625 C147.46425,20.8875625 146.86675,20.7050625 146.44425,20.3400625 C146.0205,19.9750625 145.80925,19.4438125 145.80925,18.7450625 C145.80925,17.8988125 146.192375,17.2375625 146.959875,16.7619375 C147.726125,16.2856875 148.803,16.0475625 150.18925,16.0475625 L151.8555,16.0475625 L151.8555,19.1894375 C151.421125,19.7075625 150.88425,20.1206875 150.244875,20.4275625 C149.60425,20.7338125 148.9355,20.8875625 148.237375,20.8875625 L148.237375,20.8875625 Z M146.983625,24.0613125 C147.978,24.0613125 148.91175,23.8681875 149.78425,23.4819375 C150.657375,23.0956875 151.443,22.5325625 152.141125,21.7919375 L152.69675,23.8075625 L156.727375,23.8075625 L156.727375,13.3813125 C156.727375,11.1281875 156.08675,9.4088125 154.80675,8.2238125 C153.52675,7.0388125 151.6855,6.4469375 149.284875,6.4469375 C148.2055,6.4469375 147.04675,6.5706875 145.80925,6.8194375 C144.57175,7.0681875 143.39175,7.4194375 142.2705,7.8750625 L143.30175,11.1600625 C144.08425,10.8213125 144.962375,10.5431875 145.936125,10.3269375 C146.90925,10.1094375 147.766125,10.0013125 148.50675,10.0013125 C150.6755,10.0013125 151.79175,10.9850625 151.8555,12.9531875 L151.8555,13.3813125 L149.77675,13.3813125 C147.08925,13.3813125 144.99675,13.8781875 143.5005,14.8731875 C142.003,15.8675625 141.254875,17.2538125 141.254875,19.0306875 C141.254875,20.5650625 141.7705,21.7869375 142.80175,22.6969375 C143.833625,23.6063125 145.22675,24.0613125 146.983625,24.0613125 L146.983625,24.0613125 Z M135.03425,13.3813125 L128.14675,13.3813125 C128.337375,12.1856875 128.74175,11.2944375 129.361125,10.7075625 C129.979875,10.1206875 130.828625,9.8269375 131.908,9.8269375 C133.85425,9.8269375 134.896125,11.0113125 135.03425,13.3813125 L135.03425,13.3813125 Z M131.939875,24.125187 C134.12925,24.1350625 136.514875,23.5425625 139.09675,22.3475625 L137.922375,19.3163125 C136.8855,19.7500625 135.938625,20.0650625 135.08175,20.2606875 C134.224875,20.4563125 133.373,20.5544375 132.52675,20.5544375 C129.797375,20.5544375 128.3055,19.1050625 128.05175,16.2063125 L139.50925,16.2063125 L139.50925,15.0956875 C139.50925,9.3294375 136.964875,6.4469375 131.876125,6.4469375 C129.167375,6.4469375 127.062375,7.2213125 125.5605,8.7713125 C124.057375,10.3213125 123.30675,12.4819375 123.30675,15.2538125 C123.30675,18.0363125 124.073625,20.2100625 125.608,21.7763125 C127.14175,23.3419375 129.252375,24.125187 131.939875,24.125187 L131.939875,24.125187 Z M116.514875,24.0613125 C117.339875,24.0613125 118.207375,23.9663125 119.117375,23.7756875 C120.02675,23.5856875 120.873625,23.3156875 121.656125,22.9663125 L120.878625,19.6500625 C119.714875,20.1681875 118.524875,20.4275625 117.308,20.4275625 C115.82675,20.4275625 114.692375,19.9775625 113.90425,19.0788125 C113.1155,18.1788125 112.722375,16.9044375 112.722375,15.2538125 C112.722375,13.5925625 113.1055,12.3075625 113.872375,11.3981875 C114.63925,10.4875625 115.726125,10.0331875 117.133625,10.0331875 C118.213,10.0331875 119.328625,10.3344375 120.482375,10.9375625 L121.561125,7.7163125 C120.006125,6.9119375 118.3605,6.5100625 116.626125,6.5100625 C113.82175,6.5100625 111.653625,7.2744375 110.11925,8.8031875 C108.584875,10.3313125 107.818625,12.4819375 107.818625,15.2538125 C107.818625,18.0994375 108.56425,20.2788125 110.056125,21.7919375 C111.548,23.3044375 113.7005,24.0613125 116.514875,24.0613125 L116.514875,24.0613125 Z M94.55175,20.2050625 C92.604875,20.2050625 91.132375,19.5231875 90.132375,18.1581875 C89.132375,16.7931875 88.633,14.7988125 88.633,12.1756875 C88.633,9.5938125 89.127375,7.6419375 90.11675,6.3200625 C91.1055,4.9969375 92.58425,4.3363125 94.55175,4.3363125 C96.498625,4.3363125 97.97175,5.0025625 98.97175,6.3356875 C99.971125,7.6688125 100.471125,9.6150625 100.471125,12.1756875 C100.471125,14.7988125 99.971125,16.7931875 98.97175,18.1581875 C97.97175,19.5231875 96.498625,20.2050625 94.55175,20.2050625 L94.55175,20.2050625 Z M94.55175,24.0931875 C98.148625,24.0931875 100.888625,23.0719375 102.772375,21.0306875 C104.654875,18.9881875 105.59675,16.0363125 105.59675,12.1756875 C105.59675,8.3988125 104.649875,5.4969375 102.756125,3.4713125 C100.862375,1.4450625 98.127375,0.4325625 94.55175,0.4325625 C90.976125,0.4325625 88.241125,1.4481875 86.347375,3.4794375 C84.453625,5.5106875 83.50675,8.4088125 83.50675,12.1756875 C83.50675,16.0475625 84.443,19.0019375 86.316125,21.0381875 C88.188625,23.0744375 90.933625,24.0931875 94.55175,24.0931875 L94.55175,24.0931875 Z M69.177375,23.8075625 L69.177375,11.9056875 C69.589875,11.3025625 70.13425,10.8238125 70.81175,10.4694375 C71.488625,10.1150625 72.218625,9.9381875 73.00175,9.9381875 C73.868625,9.9381875 74.498,10.1600625 74.889875,10.6044375 C75.281125,11.0488125 75.477375,11.7675625 75.477375,12.7625625 L75.477375,23.8075625 L80.34925,23.8075625 L80.34925,12.4925625 C80.34925,10.5888125 79.867375,9.1150625 78.904875,8.0731875 C77.94175,7.0306875 76.572375,6.5100625 74.794875,6.5100625 C72.351125,6.5100625 70.378,7.3881875 68.8755,9.1444375 L68.35175,6.7800625 L64.28925,6.7800625 L64.28925,23.8075625 L69.177375,23.8075625 Z M56.513625,13.3813125 L49.626125,13.3813125 C49.81675,12.1856875 50.22175,11.2944375 50.8405,10.7075625 C51.45925,10.1206875 52.308,9.8269375 53.387375,9.8269375 C55.333625,9.8269375 56.3755,11.0113125 56.513625,13.3813125 L56.513625,13.3813125 Z M53.41925,24.125187 C55.60925,24.1350625 57.99425,23.5425625 60.576125,22.3475625 L59.40175,19.3163125 C58.364875,19.7500625 57.418,20.0650625 56.561125,20.2606875 C55.70425,20.4563125 54.852375,20.5544375 54.006125,20.5544375 C51.27675,20.5544375 49.784875,19.1050625 49.531125,16.2063125 L60.988625,16.2063125 L60.988625,15.0956875 C60.988625,9.3294375 58.44425,6.4469375 53.3555,6.4469375 C50.64675,6.4469375 48.54175,7.2213125 47.039875,8.7713125 C45.53675,10.3213125 44.786125,12.4819375 44.786125,15.2538125 C44.786125,18.0363125 45.553,20.2100625 47.087375,21.7763125 C48.621125,23.3419375 50.73175,24.125187 53.41925,24.125187 L53.41925,24.125187 Z M33.218,20.7450625 C32.762375,20.7450625 32.37675,20.7231875 32.05925,20.6813125 C31.74175,20.6388125 31.2705,20.5431875 30.64675,20.3956875 L30.64675,12.6675625 C30.92175,11.8206875 31.368625,11.1644375 31.988,10.6994375 C32.60675,10.2338125 33.34925,10.0012633 34.217375,10.0012633 C36.598,9.9906875 37.788,11.6994375 37.788,15.1269375 C37.788,16.9681875 37.393625,18.3644375 36.6055,19.3163125 C35.817375,20.2688125 34.688,20.7450625 33.218,20.7450625 L33.218,20.7450625 Z M30.64675,31.2500625 L30.64675,23.7125625 C31.662375,23.9450625 32.614875,24.0613125 33.503625,24.0613125 C35.386125,24.0613125 37.0155,23.6988125 38.391125,22.9744375 C39.766125,22.2494375 40.82925,21.2050625 41.5805,19.8400625 C42.33175,18.4756875 42.707375,16.8513125 42.707375,14.9681875 C42.707375,12.2813125 42.051125,10.2075625 40.739875,8.7475625 C39.427375,7.2875625 37.592375,6.5575625 35.233,6.5575625 C34.20675,6.5575625 33.29925,6.7350625 32.51175,7.0894375 C31.723,7.4431875 30.96925,8.0125625 30.249875,8.7950625 L29.50425,6.7800625 L25.774875,6.7800625 L25.774875,31.2500625 L30.64675,31.2500625 Z M11.143625,20.2050625 C9.19675,20.2050625 7.723625,19.5231875 6.72425,18.1581875 C5.72425,16.7931875 5.22425,14.7988125 5.22425,12.1756875 C5.22425,9.5938125 5.718625,7.6419375 6.708,6.3200625 C7.69675,4.9969375 9.176125,4.3363125 11.143625,4.3363125 C13.089875,4.3363125 14.563625,5.0025625 15.563,6.3356875 C16.563,7.6688125 17.063,9.6150625 17.063,12.1756875 C17.063,14.7988125 16.563,16.7931875 15.563,18.1581875 C14.563625,19.5231875 13.089875,20.2050625 11.143625,20.2050625 L11.143625,20.2050625 Z M11.143625,24.0931875 C14.7405,24.0931875 17.4805,23.0719375 19.363625,21.0306875 C21.24675,18.9881875 22.188625,16.0363125 22.188625,12.1756875 C22.188625,8.3988125 21.241125,5.4969375 19.348,3.4713125 C17.45425,1.4450625 14.71925,0.4325625 11.143625,0.4325625 C7.567375,0.4325625 4.832375,1.4481875 2.93925,3.4794375 C1.0455,5.5106875 0.098625,8.4088125 0.098625,12.1756875 C0.098625,16.0475625 1.034875,19.0019375 2.907375,21.0381875 C4.7805,23.0744375 7.5255,24.0931875 11.143625,24.0931875 L11.143625,24.0931875 Z" id="Fill-3" fill="#000000" mask="url(#mask-4)"></path>
                    </g>
                </g>
                <g id="编组-2" transform="translate(270.625000, 10.000000)">
                    <rect id="矩形" fill="#062EF5" x="0" y="0" width="72.5" height="30.625" rx="1"></rect>
                    <path d="M23.00875,22.4175 L23.00875,17.0625 L25.26125,17.0625 C26.4795833,17.0625 27.4995833,16.8429167 28.32125,16.40375 C29.1429167,15.9645833 29.7520833,15.3872917 30.14875,14.671875 C30.5454167,13.9564583 30.74375,13.1666667 30.74375,12.3025 C30.74375,11.3675 30.5383333,10.53875 30.1275,9.81625 C29.7166667,9.09375 29.1004167,8.52708333 28.27875,8.11625 C27.4570833,7.70541667 26.45125,7.5 25.26125,7.5 L25.26125,7.5 L19.375,7.5 L19.375,22.4175 L23.00875,22.4175 Z M24.985,14.1725 L23.00875,14.1725 L23.00875,10.4325 L24.985,10.4325 C25.6791667,10.4325 26.19625,10.5954167 26.53625,10.92125 C26.87625,11.2470833 27.04625,11.7075 27.04625,12.3025 C27.04625,12.8975 26.87625,13.3579167 26.53625,13.68375 C26.19625,14.0095833 25.6791667,14.1725 24.985,14.1725 L24.985,14.1725 Z M36.26875,22.4175 L36.26875,16.91375 C36.26875,15.93625 36.4954167,15.2527083 36.94875,14.863125 C37.4020833,14.4735417 38.0820833,14.27875 38.98875,14.27875 L38.98875,14.27875 L39.9875,14.27875 L39.9875,10.4325 C39.2083333,10.4325 38.5,10.6202083 37.8625,10.995625 C37.225,11.3710417 36.69375,11.8845833 36.26875,12.53625 L36.26875,12.53625 L36.26875,10.56 L32.635,10.56 L32.635,22.4175 L36.26875,22.4175 Z M47.1275,22.5875 C48.2891667,22.5875 49.3410417,22.3395833 50.283125,21.84375 C51.2252083,21.3479167 51.9689583,20.6360417 52.514375,19.708125 C53.0597917,18.7802083 53.3325,17.7070833 53.3325,16.48875 C53.3325,15.2704167 53.0633333,14.1972917 52.525,13.269375 C51.9866667,12.3414583 51.25,11.6295833 50.315,11.13375 C49.38,10.6379167 48.3316667,10.39 47.17,10.39 C46.0083333,10.39 44.96,10.6379167 44.025,11.13375 C43.09,11.6295833 42.3533333,12.3414583 41.815,13.269375 C41.2766667,14.1972917 41.0075,15.2704167 41.0075,16.48875 C41.0075,17.72125 41.273125,18.7979167 41.804375,19.71875 C42.335625,20.6395833 43.0652083,21.3479167 43.993125,21.84375 C44.9210417,22.3395833 45.9658333,22.5875 47.1275,22.5875 Z M47.1275,19.4425 C46.4333333,19.4425 45.8560417,19.1875 45.395625,18.6775 C44.9352083,18.1675 44.705,17.4379167 44.705,16.48875 C44.705,15.5254167 44.93875,14.7922917 45.40625,14.289375 C45.87375,13.7864583 46.4616667,13.535 47.17,13.535 C47.8641667,13.535 48.4485417,13.79 48.923125,14.3 C49.3977083,14.81 49.635,15.5395833 49.635,16.48875 C49.635,17.4379167 49.390625,18.1675 48.901875,18.6775 C48.413125,19.1875 47.8216667,19.4425 47.1275,19.4425 Z" id="Pro" fill="#FFFFFF" fill-rule="nonzero"></path>
                </g>
            </g>
        </g>
    </g>
</svg>