<?xml version="1.0" encoding="UTF-8"?>
<svg width="186px" height="50px" viewBox="0 0 186 50" version="1.1" xmlns="http://www.w3.org/2000/svg" xmlns:xlink="http://www.w3.org/1999/xlink">
    <title>Logo Classic Small 2</title>
    <defs>
        <polygon id="path-1" points="0 0 55.3190625 0 55.3190625 49.9999375 0 49.9999375"></polygon>
    </defs>
    <g id="H5" stroke="none" stroke-width="1" fill="none" fill-rule="evenodd">
        <g id="Logo-Classic-Small-2">
            <g id="编组">
                <mask id="mask-2" fill="white">
                    <use xlink:href="#path-1"></use>
                </mask>
                <g id="Clip-2"></g>
                <path d="M43.7084375,25.9755625 C43.7053125,26.0418125 43.7040625,26.1093125 43.7003125,26.1749375 C43.6471875,26.3693125 43.4803125,26.5130625 43.2715625,26.5199375 C43.1990625,26.5049375 43.1259375,26.4886875 43.0528125,26.4724375 C42.5553125,26.3630625 42.0484375,26.2443125 41.5196875,26.1043125 C34.0484375,24.1305625 29.7240625,25.2899375 28.2571875,25.8518125 C28.2453125,25.8568125 28.2321875,25.8599375 28.2209375,25.8655625 C27.9459375,25.9868125 27.7396875,26.2343125 27.6790625,26.5355625 L27.6790625,26.9105625 L27.6790625,30.7743125 L27.6790625,31.1486875 C27.7653125,31.5768125 28.1440625,31.8993125 28.5971875,31.8993125 C28.6596875,31.8993125 28.7209375,31.8924375 28.7790625,31.8805625 C28.7909375,31.8774375 28.8009375,31.8743125 28.8128125,31.8718125 C31.0209375,31.2936875 36.1559375,30.3518125 41.5196875,32.2118125 L41.7240625,32.2811875 L41.7596875,32.2930625 C41.7690625,32.2961875 41.7796875,32.2993125 41.7896875,32.3024375 C41.9471875,32.3780625 42.0578125,32.5361875 42.0578125,32.7224375 C42.0578125,32.7524375 42.0465625,32.7780625 42.0415625,32.8061875 C42.0046875,32.8855625 41.9665625,32.9636875 41.9284375,33.0424375 C38.9171875,39.3705625 32.4746875,43.7499375 24.9996875,43.7499375 C14.6446875,43.7499375 6.2496875,35.3555625 6.2496875,24.9999375 C6.2496875,14.6443125 14.6446875,6.2499375 24.9996875,6.2499375 C32.3203125,6.2499375 38.6540625,10.4493125 41.7421875,16.5674375 C41.7778125,16.6155625 41.8034375,16.6686875 41.8190625,16.7286875 C41.8284375,16.7668125 41.8421875,16.8030625 41.8421875,16.8449375 C41.8421875,17.1036875 41.6328125,17.3136875 41.3734375,17.3136875 C41.3303125,17.3136875 41.2915625,17.2993125 41.2515625,17.2886875 C41.2296875,17.2824375 41.2059375,17.2818125 41.1846875,17.2718125 C34.1115625,15.4699375 29.9159375,16.4936875 28.3684375,17.0586875 C28.2940625,17.0861875 28.2309375,17.1105625 28.1696875,17.1355625 C27.9209375,17.2643125 27.7353125,17.4961875 27.6790625,17.7780625 L27.6790625,18.1524375 L27.6790625,22.0480625 L27.6790625,22.4224375 C27.7653125,22.8505625 28.1440625,23.1730625 28.5971875,23.1730625 C28.6109375,23.1730625 28.6234375,23.1693125 28.6371875,23.1686875 C28.7534375,23.1368125 28.8796875,23.1036875 29.0153125,23.0705625 C31.3228125,22.4911875 36.3121875,21.6561875 41.5196875,23.4618125 L41.7596875,23.5430625 C42.3165625,23.7274375 42.8690625,23.8768125 43.4171875,24.0049375 C43.4340625,24.0099375 43.4521875,24.0105625 43.4684375,24.0174375 C43.6109375,24.0799375 43.7084375,24.2136875 43.7346875,24.3718125 C43.7365625,24.4161875 43.7371875,24.4605625 43.7384375,24.5049375 C43.7428125,24.6699375 43.7496875,24.8343125 43.7496875,24.9999375 C43.7496875,25.3286875 43.7253125,25.6511875 43.7084375,25.9755625 M54.3803125,17.7799375 C54.3178125,17.7799375 54.2559375,17.7861875 54.1959375,17.7980625 C54.1365625,17.8168125 54.0771875,17.8355625 54.0121875,17.8549375 C53.0559375,18.1355625 51.5621875,18.4318125 49.5171875,18.4536875 C49.4921875,18.4543125 49.4671875,18.4543125 49.4415625,18.4549375 C49.2709375,18.4405625 49.1284375,18.3405625 49.0578125,18.1943125 C49.0434375,18.1643125 49.0371875,18.1318125 49.0303125,18.0986875 C45.8834375,7.1261875 35.4315625,-0.7588125 23.2728125,0.0580625 C10.9378125,0.8868125 0.9434375,10.8374375 0.0653125,23.1686875 C-0.9771875,37.8036875 10.5871875,49.9999375 24.9996875,49.9999375 C35.7740625,49.9999375 44.9515625,43.1830625 48.4659375,33.6286875 C48.4753125,33.5993125 48.4840625,33.5711875 48.4978125,33.5443125 C48.5703125,33.4061875 48.7071875,33.3105625 48.8715625,33.2968125 C48.8928125,33.2961875 48.9140625,33.2949375 48.9359375,33.2943125 C51.4540625,33.2205625 53.4803125,32.7568125 54.5296875,32.4593125 C54.6178125,32.4343125 54.6959375,32.4111875 54.7703125,32.3893125 C55.0796875,32.2493125 55.2978125,31.9468125 55.3190625,31.5899375 L55.3190625,31.4755625 L55.3190625,27.6405625 L55.3190625,27.3136875 C55.2415625,26.8680625 54.8553125,26.5280625 54.3871875,26.5280625 C54.3246875,26.5280625 54.2646875,26.5355625 54.2059375,26.5461875 C54.1534375,26.5624375 54.0934375,26.5799375 54.0365625,26.5968125 C53.2334375,26.8355625 52.0459375,27.0874375 50.4590625,27.1755625 C50.4278125,27.1774375 50.3953125,27.1786875 50.3640625,27.1799375 C50.1278125,27.1605625 49.9428125,26.9718125 49.9353125,26.7324375 C49.9359375,26.7186875 49.9371875,26.7049375 49.9378125,26.6911875 C49.9746875,26.1318125 49.9996875,25.5693125 49.9996875,24.9999375 C49.9996875,24.9830625 49.9990625,24.9661875 49.9990625,24.9486875 C49.9990625,24.9218125 49.9984375,24.8961875 49.9984375,24.8693125 C50.0146875,24.6730625 50.1496875,24.5161875 50.3340625,24.4636875 C50.3921875,24.4586875 50.4509375,24.4536875 50.5084375,24.4486875 C52.2709375,24.2786875 53.6778125,23.9493125 54.5028125,23.7168125 C54.6109375,23.6861875 54.7071875,23.6580625 54.7946875,23.6318125 C55.0846875,23.4911875 55.2884375,23.2074375 55.3190625,22.8718125 L55.3190625,22.7024375 L55.3190625,18.7424375 L55.3190625,18.6980625 C55.3078125,18.1893125 54.8928125,17.7799375 54.3803125,17.7799375" id="Fill-1" fill="#000000" mask="url(#mask-2)"></path>
            </g>
            <g id="编组-2" transform="translate(74.000000, 9.000000)">
                <rect id="矩形" fill="#062EF5" x="0" y="5.32907052e-15" width="112" height="30.625" rx="1"></rect>
                <path d="M26.5390625,23.2636719 C28.3815104,23.2636719 29.9488932,22.7558594 31.2412109,21.7402344 C32.5335286,20.7246094 33.3326823,19.4322917 33.6386719,17.8632812 L33.6386719,17.8632812 L30.171875,17.8632812 C29.9049479,18.5598958 29.4508464,19.1263021 28.8095703,19.5625 C28.1682943,19.9986979 27.4114583,20.2167969 26.5390625,20.2167969 C25.3346354,20.2167969 24.3531901,19.8212891 23.5947266,19.0302734 C22.836263,18.2392578 22.4570312,17.2285156 22.4570312,15.9980469 C22.4570312,14.7871094 22.8378906,13.78125 23.5996094,12.9804687 C24.3613281,12.1796875 25.3411458,11.7792969 26.5390625,11.7792969 C27.4179687,11.7792969 28.1748047,12.0055339 28.8095703,12.4580078 C29.4443359,12.9104818 29.859375,13.4915365 30.0546875,14.2011719 L30.0546875,14.2011719 L33.4921875,14.2011719 C33.2903646,13.1660156 32.8867187,12.2399089 32.28125,11.4228516 C31.6757812,10.6057943 30.875,9.9547526 29.8789062,9.46972656 C28.8828125,8.98470052 27.7695312,8.7421875 26.5390625,8.7421875 C25.1132812,8.7421875 23.8372396,9.05957031 22.7109375,9.69433594 C21.5846354,10.3291016 20.7138672,11.1982422 20.0986328,12.3017578 C19.4833984,13.4052734 19.1757812,14.6373698 19.1757812,15.9980469 C19.1757812,17.3717448 19.4817708,18.608724 20.09375,19.7089844 C20.7057292,20.8092448 21.5748698,21.6767578 22.7011719,22.3115234 C23.827474,22.9462891 25.1067708,23.2636719 26.5390625,23.2636719 Z M40.09375,23 L40.09375,20.2753906 L39.7128906,20.2753906 C39.1269531,20.2753906 38.8339844,19.9563802 38.8339844,19.3183594 L38.8339844,19.3183594 L38.8339844,8 L35.7285156,8 L35.7285156,19.6796875 C35.7285156,20.7213542 36.0166016,21.5351562 36.5927734,22.1210938 C37.1689453,22.7070312 37.9811198,23 39.0292969,23 L39.0292969,23 L40.09375,23 Z M46.4609375,23.2636719 C46.8710937,23.2636719 47.2503255,23.2115885 47.5986328,23.1074219 C47.9469401,23.0032552 48.2366536,22.8681641 48.4677734,22.7021484 C48.6988932,22.5361328 48.8860677,22.3815104 49.0292969,22.2382812 C49.172526,22.0950521 49.2897135,21.9485677 49.3808594,21.7988281 L49.3808594,21.7988281 L49.546875,21.7988281 L49.546875,23 L52.6230469,23 L52.6230469,12.4433594 L49.5273437,12.4433594 L49.5273437,13.6445312 L49.3613281,13.6445312 C49.1204427,13.2734375 48.7477214,12.9365234 48.2431641,12.6337891 C47.7386068,12.3310547 47.1184896,12.1796875 46.3828125,12.1796875 C44.9635417,12.1796875 43.8095703,12.6972656 42.9208984,13.7324219 C42.0322266,14.7675781 41.5878906,16.1152344 41.5878906,17.7753906 C41.5878906,19.4290365 42.0354818,20.7571615 42.9306641,21.7597656 C43.8258464,22.7623698 45.0026042,23.2636719 46.4609375,23.2636719 Z M47.1640625,20.4609375 C46.4348958,20.4609375 45.8457031,20.2086589 45.3964844,19.7041016 C44.9472656,19.1995443 44.7226562,18.5371094 44.7226562,17.7167969 C44.7226562,16.9095052 44.9472656,16.2519531 45.3964844,15.7441406 C45.8457031,15.2363281 46.4283854,14.9824219 47.1445312,14.9824219 C47.8606771,14.9824219 48.4466146,15.2314453 48.9023437,15.7294922 C49.3580729,16.2275391 49.5859375,16.889974 49.5859375,17.7167969 C49.5859375,18.5110677 49.3645833,19.1669922 48.921875,19.6845703 C48.4791667,20.2021484 47.8932292,20.4609375 47.1640625,20.4609375 Z M58.8242187,23.2636719 C60.2890625,23.2636719 61.4283854,22.938151 62.2421875,22.2871094 C63.0559896,21.6360677 63.4628906,20.7864583 63.4628906,19.7382812 C63.4628906,19.2369792 63.3929036,18.7958984 63.2529297,18.4150391 C63.1129557,18.0341797 62.9241536,17.7298177 62.6865234,17.5019531 C62.4488932,17.2740885 62.1754557,17.0804036 61.8662109,16.9208984 C61.5569661,16.7613932 61.2314453,16.6442057 60.8896484,16.5693359 C60.5478516,16.4944661 60.2076823,16.4309896 59.8691406,16.3789062 C59.530599,16.3268229 59.2067057,16.2828776 58.8974609,16.2470703 C58.5882161,16.211263 58.3147786,16.1640625 58.0771484,16.1054688 C57.8395182,16.046875 57.6507161,15.960612 57.5107422,15.8466797 C57.3707682,15.7327474 57.3007812,15.5846354 57.3007812,15.4023438 C57.3007812,15.1223958 57.4407552,14.8961589 57.7207031,14.7236328 C58.000651,14.5511068 58.375,14.4648438 58.84375,14.4648438 C59.3385417,14.4648438 59.7259115,14.5608724 60.0058594,14.7529297 C60.2858073,14.944987 60.4518229,15.2070312 60.5039062,15.5390625 L60.5039062,15.5390625 L63.1796875,15.5390625 C63.1145833,14.4648438 62.688151,13.6363932 61.9003906,13.0537109 C61.1126302,12.4710286 60.09375,12.1796875 58.84375,12.1796875 C57.4895833,12.1796875 56.4267578,12.5035807 55.6552734,13.1513672 C54.8837891,13.7991536 54.4980469,14.5950521 54.4980469,15.5390625 C54.4980469,16.0794271 54.5843099,16.5498047 54.7568359,16.9501953 C54.929362,17.3505859 55.1539714,17.6582031 55.4306641,17.8730469 C55.7073568,18.0878906 56.0247396,18.2685547 56.3828125,18.4150391 C56.7408854,18.5615234 57.1070964,18.6608073 57.4814453,18.7128906 C57.8557943,18.764974 58.2220052,18.8219401 58.5800781,18.8837891 C58.938151,18.945638 59.2555339,19.0042318 59.5322266,19.0595703 C59.8089193,19.1149089 60.0335286,19.2125651 60.2060547,19.3525391 C60.3785807,19.492513 60.4648437,19.6764323 60.4648437,19.9042969 C60.4648437,20.203776 60.3232422,20.4414062 60.0400391,20.6171875 C59.7568359,20.7929688 59.3580729,20.8808594 58.84375,20.8808594 C58.3294271,20.8808594 57.922526,20.7848307 57.6230469,20.5927734 C57.3235677,20.4007161 57.1542969,20.1223958 57.1152344,19.7578125 L57.1152344,19.7578125 L54.3027344,19.7578125 C54.3352865,20.8580729 54.7275391,21.7174479 55.4794922,22.3359375 C56.2314453,22.9544271 57.3463542,23.2636719 58.8242187,23.2636719 Z M69.4394531,23.2636719 C70.9042969,23.2636719 72.0436198,22.938151 72.8574219,22.2871094 C73.671224,21.6360677 74.078125,20.7864583 74.078125,19.7382812 C74.078125,19.2369792 74.008138,18.7958984 73.8681641,18.4150391 C73.7281901,18.0341797 73.539388,17.7298177 73.3017578,17.5019531 C73.0641276,17.2740885 72.7906901,17.0804036 72.4814453,16.9208984 C72.1722005,16.7613932 71.8466797,16.6442057 71.5048828,16.5693359 C71.1630859,16.4944661 70.8229167,16.4309896 70.484375,16.3789062 C70.1458333,16.3268229 69.8219401,16.2828776 69.5126953,16.2470703 C69.2034505,16.211263 68.930013,16.1640625 68.6923828,16.1054688 C68.4547526,16.046875 68.2659505,15.960612 68.1259766,15.8466797 C67.9860026,15.7327474 67.9160156,15.5846354 67.9160156,15.4023438 C67.9160156,15.1223958 68.0559896,14.8961589 68.3359375,14.7236328 C68.6158854,14.5511068 68.9902344,14.4648438 69.4589844,14.4648438 C69.953776,14.4648438 70.3411458,14.5608724 70.6210937,14.7529297 C70.9010417,14.944987 71.0670573,15.2070312 71.1191406,15.5390625 L71.1191406,15.5390625 L73.7949219,15.5390625 C73.7298177,14.4648438 73.3033854,13.6363932 72.515625,13.0537109 C71.7278646,12.4710286 70.7089844,12.1796875 69.4589844,12.1796875 C68.1048177,12.1796875 67.0419922,12.5035807 66.2705078,13.1513672 C65.4990234,13.7991536 65.1132812,14.5950521 65.1132812,15.5390625 C65.1132812,16.0794271 65.1995443,16.5498047 65.3720703,16.9501953 C65.5445964,17.3505859 65.7692057,17.6582031 66.0458984,17.8730469 C66.3225911,18.0878906 66.639974,18.2685547 66.9980469,18.4150391 C67.3561198,18.5615234 67.7223307,18.6608073 68.0966797,18.7128906 C68.4710286,18.764974 68.8372396,18.8219401 69.1953125,18.8837891 C69.5533854,18.945638 69.8707682,19.0042318 70.1474609,19.0595703 C70.4241536,19.1149089 70.648763,19.2125651 70.8212891,19.3525391 C70.9938151,19.492513 71.0800781,19.6764323 71.0800781,19.9042969 C71.0800781,20.203776 70.9384766,20.4414062 70.6552734,20.6171875 C70.3720703,20.7929688 69.9733073,20.8808594 69.4589844,20.8808594 C68.9446615,20.8808594 68.5377604,20.7848307 68.2382812,20.5927734 C67.9388021,20.4007161 67.7695312,20.1223958 67.7304687,19.7578125 L67.7304687,19.7578125 L64.9179687,19.7578125 C64.9505208,20.8580729 65.3427734,21.7174479 66.0947266,22.3359375 C66.8466797,22.9544271 67.9615885,23.2636719 69.4394531,23.2636719 Z M77.671875,11.2617188 C78.2122396,11.2617188 78.6500651,11.1103516 78.9853516,10.8076172 C79.320638,10.5048828 79.4882812,10.0963542 79.4882812,9.58203125 C79.4882812,9.06770833 79.320638,8.65917969 78.9853516,8.35644531 C78.6500651,8.05371094 78.2122396,7.90234375 77.671875,7.90234375 C77.1315104,7.90234375 76.6920573,8.05533854 76.3535156,8.36132812 C76.014974,8.66731771 75.8457031,9.07421875 75.8457031,9.58203125 C75.8457031,10.0898438 76.014974,10.4967448 76.3535156,10.8027344 C76.6920573,11.108724 77.1315104,11.2617188 77.671875,11.2617188 Z M79.234375,23 L79.234375,12.4433594 L76.1289062,12.4433594 L76.1289062,23 L79.234375,23 Z M86.5,23.2636719 C87.9388021,23.2636719 89.1383464,22.8714193 90.0986328,22.0869141 C91.0589193,21.3024089 91.6269531,20.2786458 91.8027344,19.015625 L91.8027344,19.015625 L88.6386719,19.015625 C88.5019531,19.4453125 88.2415365,19.7936198 87.8574219,20.0605469 C87.4733073,20.327474 87.0273437,20.4609375 86.5195312,20.4609375 C85.7773437,20.4609375 85.1783854,20.2005208 84.7226562,19.6796875 C84.2669271,19.1588542 84.0390625,18.5045573 84.0390625,17.7167969 C84.0390625,16.9355469 84.2636719,16.2845052 84.7128906,15.7636719 C85.1621094,15.2428385 85.7578125,14.9824219 86.5,14.9824219 C87.0338542,14.9824219 87.4944661,15.125651 87.8818359,15.4121094 C88.2692057,15.6985677 88.5345052,16.0729167 88.6777344,16.5351562 L88.6777344,16.5351562 L91.8222656,16.5351562 C91.672526,15.2395833 91.109375,14.1897786 90.1328125,13.3857422 C89.15625,12.5817057 87.9388021,12.1796875 86.4804687,12.1796875 C85.3736979,12.1796875 84.3938802,12.4254557 83.5410156,12.9169922 C82.688151,13.4085286 82.0354818,14.0725911 81.5830078,14.9091797 C81.1305339,15.7457682 80.9042969,16.6816406 80.9042969,17.7167969 C80.9042969,18.7454427 81.1305339,19.6796875 81.5830078,20.5195312 C82.0354818,21.359375 82.6914062,22.0266927 83.5507812,22.5214844 C84.4101562,23.016276 85.3932292,23.2636719 86.5,23.2636719 Z" id="Classic" fill="#FFFFFF" fill-rule="nonzero"></path>
            </g>
        </g>
    </g>
</svg>