<?xml version="1.0" encoding="UTF-8"?>
<svg width="165px" height="24px" viewBox="0 0 165 24" version="1.1" xmlns="http://www.w3.org/2000/svg" xmlns:xlink="http://www.w3.org/1999/xlink">
    <title>编组 3</title>
    <g id="页面-1" stroke="none" stroke-width="1" fill="none" fill-rule="evenodd">
        <g id="1备份-2" transform="translate(-20.000000, -20.000000)">
            <g id="编组-3" transform="translate(20.000000, 20.000000)">
                <g id="编组" opacity="0.9" fill="#FFFFFF">
                    <path d="M11.17095,0.02787 C17.00715,-0.36423 22.02405,3.42057 23.53455,8.68737 C23.53785,8.70327 23.54085,8.71887 23.54775,8.73327 C23.58165,8.80347 23.65005,8.85147 23.73195,8.85837 C23.74425,8.85807 23.75625,8.85807 23.76825,8.85777 C24.74985,8.84727 25.46685,8.70507 25.92585,8.57037 C25.95705,8.56107 25.98555,8.55207 26.01405,8.54307 C26.04285,8.53737 26.07255,8.53437 26.10255,8.53437 C26.34855,8.53437 26.54775,8.73087 26.55315,8.97507 L26.55315,8.97507 L26.55315,10.97847 C26.53845,11.13957 26.44065,11.27577 26.30145,11.34327 C26.25945,11.35587 26.21325,11.36937 26.16135,11.38407 C25.76535,11.49567 25.09005,11.65377 24.24405,11.73537 C24.21645,11.73777 24.18825,11.74017 24.16035,11.74257 C24.07185,11.76777 24.00705,11.84307 23.99925,11.93727 L23.99925,11.93727 L23.99985,11.999979 C23.99985,12.27327 23.98785,12.54327 23.97015,12.81177 L23.97015,12.81177 L23.96895,12.83157 C23.97255,12.94647 24.06135,13.03707 24.17475,13.04637 L24.17475,13.04637 L24.22035,13.04427 C24.98205,13.00197 25.55205,12.88107 25.93755,12.76647 C25.96485,12.75837 25.99365,12.74997 26.01885,12.74217 C26.04705,12.73707 26.07585,12.73347 26.10585,12.73347 C26.33055,12.73347 26.51595,12.89667 26.55315,13.11057 L26.55315,13.11057 L26.55315,15.16317 C26.54295,15.33447 26.43825,15.47967 26.28975,15.54687 C26.25405,15.55737 26.21655,15.56847 26.17425,15.58047 C25.67055,15.72327 24.69795,15.94587 23.48925,15.98127 C23.47875,15.98157 23.46855,15.98217 23.45835,15.98247 C23.37945,15.98907 23.31375,16.03497 23.27895,16.10127 C23.27235,16.11417 23.26815,16.12767 23.26365,16.14177 C21.57675,20.72787 17.17155,23.999979 11.99985,23.999979 C5.08185,23.999979 -0.46905,18.14577 0.03135,11.12097 C0.45285,5.20197 5.25015,0.42567 11.17095,0.02787 Z M52.61184,9.14763 C53.74434,9.14763 54.62514,9.49803 55.25514,10.19883 C55.88454,10.89963 56.19954,11.89503 56.19954,13.18473 C56.19954,14.08863 56.01924,14.86833 55.65864,15.52323 C55.29804,16.17843 54.78774,16.67973 54.12774,17.02773 C53.46744,17.37543 52.68534,17.54943 51.78174,17.54943 C51.35514,17.54943 50.89794,17.49363 50.41044,17.38203 L50.41044,17.38203 L50.41044,21.00003 L48.07194,21.00003 L48.07194,9.25443 L49.86204,9.25443 L50.21994,10.22163 C50.56524,9.84603 50.92704,9.57273 51.30564,9.40293 C51.68364,9.23283 52.11924,9.14763 52.61184,9.14763 Z M11.99985,2.99997 C7.02945,2.99997 2.99985,7.02927 2.99985,11.99997 C2.99985,16.97067 7.02945,20.99997 11.99985,20.99997 C15.58785,20.99997 18.68025,18.89787 20.12565,15.86037 C20.14395,15.82257 20.16225,15.78507 20.17995,15.74697 C20.18235,15.73347 20.18775,15.72117 20.18775,15.70677 C20.18775,15.61737 20.13465,15.54147 20.05905,15.50517 C20.05425,15.50367 20.04915,15.50217 20.04465,15.50067 L20.04465,15.50067 L20.02755,15.49497 L19.92945,15.46167 C17.35485,14.56887 14.89005,15.02097 13.83015,15.29847 C13.82445,15.29967 13.81965,15.30117 13.81395,15.30267 C13.78605,15.30837 13.75665,15.31167 13.72665,15.31167 C13.50915,15.31167 13.32735,15.15687 13.28595,14.95137 L13.28595,14.95137 L13.28595,12.73707 C13.31505,12.59247 13.41405,12.47367 13.54605,12.41547 C13.55145,12.41277 13.55775,12.41127 13.56345,12.40887 C14.26755,12.13917 16.34325,11.58267 19.92945,12.53007 C20.18325,12.59727 20.42655,12.65427 20.66535,12.70677 C20.70045,12.71457 20.73555,12.72237 20.77035,12.72957 C20.87055,12.72627 20.95065,12.65727 20.97615,12.56397 C20.97795,12.53247 20.97855,12.50007 20.98005,12.46827 C20.98815,12.31257 20.99985,12.15777 20.99985,11.99997 C20.99985,11.92047 20.99655,11.84157 20.99445,11.76237 L20.99445,11.76237 L20.99265,11.69847 C20.98005,11.62257 20.93325,11.55837 20.86485,11.52837 L20.86485,11.52837 L20.84025,11.52237 C20.57715,11.46087 20.31195,11.38917 20.04465,11.30067 L20.04465,11.30067 L19.92945,11.26167 C17.42985,10.39497 15.03495,10.79577 13.92735,11.07387 C13.86225,11.08977 13.80165,11.10567 13.74585,11.12097 C13.73925,11.12127 13.73325,11.12307 13.72665,11.12307 C13.50915,11.12307 13.32735,10.96827 13.28595,10.76277 L13.28595,10.76277 L13.28595,8.53347 C13.31295,8.39817 13.40205,8.28687 13.52145,8.22507 C13.55085,8.21307 13.58115,8.20137 13.61685,8.18817 C14.35965,7.91697 16.37355,7.42557 19.76865,8.29047 C19.77885,8.29527 19.79025,8.29557 19.80075,8.29857 C19.81995,8.30367 19.83855,8.31057 19.85925,8.31057 C19.98375,8.31057 20.08425,8.20977 20.08425,8.08557 C20.08425,8.06547 20.07765,8.04807 20.07315,8.02977 C20.06565,8.00097 20.05335,7.97547 20.03625,7.95237 C18.55395,5.01567 15.51375,2.99997 11.99985,2.99997 Z M99.00054,9.09453 C101.44314,9.09453 102.66444,10.47813 102.66444,13.24593 L102.66444,13.24593 L102.66444,13.77903 L97.16484,13.77903 C97.28664,15.17043 98.00274,15.86613 99.31284,15.86613 C99.71904,15.86613 100.12794,15.81903 100.53924,15.72513 C100.95054,15.63123 101.40504,15.48003 101.90274,15.27183 L101.90274,15.27183 L102.46644,16.72683 C101.22714,17.30043 100.08204,17.58483 99.03114,17.5800898 C97.74114,17.5800898 96.72804,17.20413 95.99184,16.45263 C95.25534,15.70083 94.88724,14.65743 94.88724,13.32183 C94.88724,11.99133 95.24754,10.95423 95.96904,10.21023 C96.68994,9.46623 97.70034,9.09453 99.00054,9.09453 Z M61.31064,9.09453 C63.75324,9.09453 64.97454,10.47813 64.97454,13.24593 L64.97454,13.24593 L64.97454,13.77903 L59.47494,13.77903 C59.59674,15.17043 60.31284,15.86613 61.62294,15.86613 C62.02914,15.86613 62.43804,15.81903 62.84934,15.72513 C63.26064,15.63123 63.71514,15.48003 64.21284,15.27183 L64.21284,15.27183 L64.77654,16.72683 C63.53724,17.30043 62.39244,17.58483 61.34124,17.5800898 C60.05124,17.5800898 59.03814,17.20413 58.30194,16.45263 C57.56544,15.70083 57.19734,14.65743 57.19734,13.32183 C57.19734,11.99133 57.55764,10.95423 58.27914,10.21023 C59.00004,9.46623 60.01044,9.09453 61.31064,9.09453 Z M81.08484,6.20763 C82.80114,6.20763 84.11394,6.69363 85.02294,7.66623 C85.93194,8.63853 86.38644,10.03143 86.38644,11.84433 C86.38644,13.69743 85.93434,15.11433 85.03074,16.09473 C84.12654,17.07453 82.81134,17.56473 81.08484,17.56473 C79.34814,17.56473 78.03054,17.07573 77.13174,16.09833 C76.23264,15.12093 75.78324,13.70283 75.78324,11.84433 C75.78324,10.03623 76.23774,8.64513 77.14674,7.67013 C78.05574,6.69513 79.36854,6.20763 81.08484,6.20763 Z M41.04894,6.20763 C42.76524,6.20763 44.07804,6.69363 44.98704,7.66623 C45.89574,8.63853 46.35054,10.03143 46.35054,11.84433 C46.35054,13.69743 45.89844,15.11433 44.99454,16.09473 C44.09064,17.07453 42.77544,17.56473 41.04894,17.56473 C39.31224,17.56473 37.99464,17.07573 37.09554,16.09833 C36.19674,15.12093 35.74734,13.70283 35.74734,11.84433 C35.74734,10.03623 36.20184,8.64513 37.11084,7.67013 C38.01954,6.69513 39.33234,6.20763 41.04894,6.20763 Z M107.35674,9.09453 C108.50904,9.09453 109.39284,9.37863 110.00724,9.94743 C110.62164,10.51623 110.92914,11.34153 110.92914,12.42303 L110.92914,12.42303 L110.92914,17.42763 L108.99444,17.42763 L108.72774,16.46013 C108.39264,16.81563 108.01554,17.08593 107.59644,17.27133 C107.17764,17.45673 106.72944,17.54943 106.25214,17.54943 C105.40884,17.54943 104.74014,17.33103 104.24484,16.89453 C103.74984,16.45773 103.50234,15.87123 103.50234,15.13473 C103.50234,14.28183 103.86144,13.61643 104.58024,13.13913 C105.29844,12.66153 106.30284,12.42303 107.59284,12.42303 L107.59284,12.42303 L108.59064,12.42303 L108.59064,12.21753 C108.56004,11.27283 108.02424,10.80063 106.98324,10.80063 C106.62774,10.80063 106.21644,10.85253 105.74934,10.95693 C105.28194,11.06073 104.86044,11.19423 104.48484,11.35683 L104.48484,11.35683 L103.98984,9.78003 C104.52804,9.56133 105.09444,9.39273 105.68844,9.27333 C106.28244,9.15393 106.83864,9.09453 107.35674,9.09453 Z M91.68054,9.12483 C92.51304,9.12483 93.30294,9.31773 94.04934,9.70383 L94.04934,9.70383 L93.53154,11.25003 C92.97774,10.96053 92.44224,10.81593 91.92414,10.81593 C91.24854,10.81593 90.72684,11.03403 90.35874,11.47113 C89.99064,11.90763 89.80674,12.52443 89.80674,13.32183 C89.80674,14.11413 89.99544,14.72583 90.37404,15.15783 C90.75234,15.58923 91.29684,15.80523 92.00784,15.80523 C92.59194,15.80523 93.16314,15.68073 93.72174,15.43203 L93.72174,15.43203 L94.09494,17.02383 C93.71934,17.19153 93.31284,17.32113 92.87634,17.41233 C92.43954,17.50383 92.02314,17.54943 91.62714,17.54943 C90.27624,17.54943 89.24304,17.18613 88.52694,16.46013 C87.81084,15.73383 87.45294,14.68773 87.45294,13.32183 C87.45294,11.99133 87.82074,10.95903 88.55724,10.22553 C89.29374,9.49173 90.33444,9.12483 91.68054,9.12483 Z M71.60154,9.12483 C72.45474,9.12483 73.11204,9.37473 73.57434,9.87513 C74.03634,10.37523 74.26764,11.08263 74.26764,11.99643 L74.26764,11.99643 L74.26764,17.42763 L71.92914,17.42763 L71.92914,12.12603 C71.92914,11.64843 71.83494,11.30343 71.64714,11.09013 C71.45904,10.87683 71.15694,10.77033 70.74084,10.77033 C70.36494,10.77033 70.01454,10.85523 69.68964,11.02533 C69.36444,11.19543 69.10314,11.42523 68.90514,11.71473 L68.90514,11.71473 L68.90514,17.42763 L66.55884,17.42763 L66.55884,9.25443 L68.50884,9.25443 L68.76024,10.38933 C69.48144,9.54633 70.42854,9.12483 71.60154,9.12483 Z M117.95964,9.12483 C118.81284,9.12483 119.47014,9.37473 119.93244,9.87513 C120.39444,10.37523 120.62574,11.08263 120.62574,11.99643 L120.62574,11.99643 L120.62574,17.42763 L118.28724,17.42763 L118.28724,12.12603 C118.28724,11.64843 118.19334,11.30343 118.00554,11.09013 C117.81744,10.87683 117.51534,10.77033 117.09894,10.77033 C116.72304,10.77033 116.37264,10.85523 116.04774,11.02533 C115.72254,11.19543 115.46124,11.42523 115.26324,11.71473 L115.26324,11.71473 L115.26324,17.42763 L112.91724,17.42763 L112.91724,9.25443 L114.86724,9.25443 L115.11864,10.38933 C115.83954,9.54633 116.78664,9.12483 117.95964,9.12483 Z M108.59064,13.70283 L107.79084,13.70283 C107.12544,13.70283 106.60854,13.81713 106.24074,14.04573 C105.87234,14.27403 105.68844,14.59143 105.68844,14.99763 C105.68844,15.33303 105.78984,15.58803 105.99324,15.76323 C106.19604,15.93843 106.48284,16.02603 106.85394,16.02603 C107.18904,16.02603 107.51004,15.95223 107.81754,15.80523 C108.12444,15.65793 108.38214,15.45963 108.59064,15.21093 L108.59064,15.21093 L108.59064,13.70283 Z M52.12434,10.8006064 C51.70764,10.8006064 51.35124,10.91223 51.05424,11.13573 C50.75694,11.35893 50.54244,11.67393 50.41044,12.08043 L50.41044,12.08043 L50.41044,15.78993 C50.70984,15.86073 50.93604,15.90663 51.08844,15.92703 C51.24084,15.94713 51.42594,15.95763 51.64464,15.95763 C52.35024,15.95763 52.89234,15.72903 53.27064,15.27183 C53.64894,14.81493 53.83824,14.14473 53.83824,13.26093 C53.83824,11.61573 53.26704,10.79553 52.12434,10.8006064 Z M41.04894,8.08143 C40.10454,8.08143 39.39444,8.39853 38.91984,9.03363 C38.44494,9.66813 38.20764,10.60503 38.20764,11.84433 C38.20764,13.10343 38.44764,14.06073 38.92764,14.71593 C39.40734,15.37113 40.11444,15.69843 41.04894,15.69843 C41.98314,15.69843 42.69054,15.37113 43.17024,14.71593 C43.65024,14.06073 43.89024,13.10343 43.89024,11.84433 C43.89024,10.61523 43.65024,9.68103 43.17024,9.04113 C42.69054,8.40123 41.98314,8.08143 41.04894,8.08143 Z M81.08484,8.08143 C80.14044,8.08143 79.43064,8.39853 78.95604,9.03363 C78.48114,9.66813 78.24384,10.60503 78.24384,11.84433 C78.24384,13.10343 78.48354,14.06073 78.96354,14.71593 C79.44354,15.37113 80.15034,15.69843 81.08484,15.69843 C82.01934,15.69843 82.72644,15.37113 83.20644,14.71593 C83.68614,14.06073 83.92614,13.10343 83.92614,11.84433 C83.92614,10.61523 83.68614,9.68103 83.20644,9.04113 C82.72644,8.40123 82.01934,8.08143 81.08484,8.08143 Z M61.32594,10.71693 C60.80784,10.71693 60.40044,10.85793 60.10344,11.13963 C59.80644,11.42133 59.61204,11.84913 59.52054,12.42303 L59.52054,12.42303 L62.82654,12.42303 C62.76024,11.28543 62.26014,10.71693 61.32594,10.71693 Z M99.01584,10.71693 C98.49774,10.71693 98.09034,10.85793 97.79334,11.13963 C97.49604,11.42133 97.30194,11.84913 97.21044,12.42303 L97.21044,12.42303 L100.51644,12.42303 C100.45014,11.28543 99.95004,10.71693 99.01584,10.71693 Z" id="形状结合"></path>
                </g>
                <g id="编组-2" transform="translate(129.900000, 4.800000)">
                    <rect id="矩形" fill="#062EF5" x="0" y="0" width="34.8" height="14.7" rx="1"></rect>
                    <path d="M11.0442,10.7604 L11.0442,8.19 L12.1254,8.19 C12.7102,8.19 13.1998,8.0846 13.5942,7.8738 C13.9886,7.663 14.281,7.3859 14.4714,7.0425 C14.6618,6.6991 14.757,6.32 14.757,5.9052 C14.757,5.4564 14.6584,5.0586 14.4612,4.7118 C14.264,4.365 13.9682,4.093 13.5738,3.8958 C13.1794,3.6986 12.6966,3.6 12.1254,3.6 L12.1254,3.6 L9.3,3.6 L9.3,10.7604 L11.0442,10.7604 Z M11.9928,6.8028 L11.0442,6.8028 L11.0442,5.0076 L11.9928,5.0076 C12.326,5.0076 12.5742,5.0858 12.7374,5.2422 C12.9006,5.3986 12.9822,5.6196 12.9822,5.9052 C12.9822,6.1908 12.9006,6.4118 12.7374,6.5682 C12.5742,6.7246 12.326,6.8028 11.9928,6.8028 L11.9928,6.8028 Z M17.409,10.7604 L17.409,8.1186 C17.409,7.6494 17.5178,7.3213 17.7354,7.1343 C17.953,6.9473 18.2794,6.8538 18.7146,6.8538 L18.7146,6.8538 L19.194,6.8538 L19.194,5.0076 C18.82,5.0076 18.48,5.0977 18.174,5.2779 C17.868,5.4581 17.613,5.7046 17.409,6.0174 L17.409,6.0174 L17.409,5.0688 L15.6648,5.0688 L15.6648,10.7604 L17.409,10.7604 Z M22.6212,10.842 C23.1788,10.842 23.6837,10.723 24.1359,10.485 C24.5881,10.247 24.9451,9.9053 25.2069,9.4599 C25.4687,9.0145 25.5996,8.4994 25.5996,7.9146 C25.5996,7.3298 25.4704,6.8147 25.212,6.3693 C24.9536,5.9239 24.6,5.5822 24.1512,5.3442 C23.7024,5.1062 23.1992,4.9872 22.6416,4.9872 C22.084,4.9872 21.5808,5.1062 21.132,5.3442 C20.6832,5.5822 20.3296,5.9239 20.0712,6.3693 C19.8128,6.8147 19.6836,7.3298 19.6836,7.9146 C19.6836,8.5062 19.8111,9.023 20.0661,9.465 C20.3211,9.907 20.6713,10.247 21.1167,10.485 C21.5621,10.723 22.0636,10.842 22.6212,10.842 Z M22.6212,9.3324 C22.288,9.3324 22.0109,9.21 21.7899,8.9652 C21.5689,8.7204 21.4584,8.3702 21.4584,7.9146 C21.4584,7.4522 21.5706,7.1003 21.795,6.8589 C22.0194,6.6175 22.3016,6.4968 22.6416,6.4968 C22.9748,6.4968 23.2553,6.6192 23.4831,6.864 C23.7109,7.1088 23.8248,7.459 23.8248,7.9146 C23.8248,8.3702 23.7075,8.7204 23.4729,8.9652 C23.2383,9.21 22.9544,9.3324 22.6212,9.3324 Z" id="Pro" fill="#FFFFFF" fill-rule="nonzero"></path>
                </g>
            </g>
        </g>
    </g>
</svg>