<?xml version="1.0" encoding="utf-8"?>
<!-- Generator: Adobe Illustrator 24.2.3, SVG Export Plug-In . SVG Version: 6.00 Build 0)  -->
<svg version="1.1" id="图层_1" xmlns="http://www.w3.org/2000/svg" xmlns:xlink="http://www.w3.org/1999/xlink" x="0px" y="0px"
	 viewBox="0 0 40 40" style="enable-background:new 0 0 40 40;" xml:space="preserve">
<style type="text/css">
	.st0{fill:none;}
</style>
<g>
	<path class="st0" d="M18.2,7.1C18.2,7.1,18.2,7.1,18.2,7.1c-6.1,0-11.1,5-11.1,11.1c0,6.1,5,11.1,11.1,11.1c0,0,0,0,0,0
		c4,0,7.6-2.1,9.6-5.5c2-3.4,2-7.7,0-11.1C25.9,9.2,22.2,7.1,18.2,7.1z"/>
	<path d="M38.4,33.3L33,27.9c4.8-7.3,3.5-17.2-3.1-23c-7-6.1-17.6-5.8-24.2,0.8c-6.6,6.6-6.9,17.2-0.8,24.2c5.8,6.7,15.7,7.9,23,3.1
		l5.4,5.4c0.7,0.7,1.6,1.1,2.6,1.1c0,0,0,0,0,0c1,0,1.9-0.4,2.6-1.1C39.8,37,39.8,34.7,38.4,33.3z M27.8,23.8
		c-2,3.4-5.7,5.5-9.6,5.5c0,0,0,0,0,0c-6.1,0-11.1-5-11.1-11.1c0-6.1,5-11.1,11.1-11.1c0,0,0,0,0,0c4,0,7.6,2.1,9.6,5.5
		C29.8,16.1,29.8,20.3,27.8,23.8z"/>
</g>
</svg>
