<?xml version="1.0" standalone="no"?><!DOCTYPE svg PUBLIC "-//W3C//DTD SVG 1.1//EN" "http://www.w3.org/Graphics/SVG/1.1/DTD/svg11.dtd"><svg t="1613704378690" class="icon" viewBox="0 0 1024 1024" version="1.1" xmlns="http://www.w3.org/2000/svg" p-id="1210" xmlns:xlink="http://www.w3.org/1999/xlink" width="200" height="200"><defs><style type="text/css"></style></defs><path d="M1023.36 933.76L933.824 1024l-245.12-246.528a424 424 0 0 1-259.84 88.96C192.064 866.496 0 672.64 0 433.664S192 0.704 428.928 0.704s428.928 193.792 428.928 432.896a432.832 432.832 0 0 1-80.896 252.288l246.4 247.872zM428.864 105.6c-179.456 0-324.992 146.816-324.992 327.936 0 181.12 145.536 327.936 324.992 327.936 179.456 0 324.928-146.816 324.928-327.936 0-181.12-145.472-327.936-324.928-327.936z" fill="#FFFFFF" opacity=".3" p-id="1211"></path></svg>