<?xml version="1.0" standalone="no"?>
<!DOCTYPE svg PUBLIC "-//W3C//DTD SVG 20010904//EN"
 "http://www.w3.org/TR/2001/REC-SVG-20010904/DTD/svg10.dtd">
<svg version="1.0" xmlns="http://www.w3.org/2000/svg"
 width="1024.000000pt" height="1024.000000pt" viewBox="0 0 1024.000000 1024.000000"
 preserveAspectRatio="xMidYMid meet">
<metadata>
Created by potrace 1.11, written by Peter Selinger 2001-2013
</metadata>
<g transform="translate(0.000000,1024.000000) scale(0.100000,-0.100000)"
fill="#000000" stroke="none">
<path d="M4900 8617 c-3 -3 -50 -7 -105 -11 -55 -3 -115 -8 -133 -11 -134 -18
-199 -29 -252 -40 -14 -3 -36 -7 -50 -9 -14 -2 -70 -16 -125 -30 -541 -138
-998 -376 -1440 -749 -75 -63 -305 -294 -365 -366 -25 -29 -50 -59 -56 -65
-22 -23 -163 -214 -211 -286 -173 -259 -318 -562 -416 -865 -38 -119 -78 -267
-93 -345 -2 -14 -7 -36 -9 -50 -3 -14 -8 -38 -10 -55 -3 -16 -8 -41 -10 -55
-28 -146 -39 -308 -40 -555 0 -322 18 -488 90 -815 55 -254 196 -619 333 -865
64 -116 78 -139 138 -231 458 -706 1168 -1231 1975 -1460 131 -37 374 -88 474
-100 33 -3 69 -8 80 -10 127 -26 672 -25 825 1 14 2 48 7 75 10 28 3 57 8 65
10 8 3 31 7 50 9 108 14 340 73 505 129 242 81 500 201 695 322 137 84 359
243 440 315 143 127 185 166 266 250 127 131 240 268 367 446 119 166 282 472
368 687 25 65 51 114 63 122 13 8 68 16 136 19 63 4 131 9 150 11 19 2 55 7
80 10 115 15 240 38 333 61 56 14 113 28 127 31 38 9 69 33 87 67 13 25 16 79
16 354 0 307 -1 325 -20 350 -25 34 -80 61 -113 56 -14 -3 -63 -14 -110 -25
-47 -12 -96 -22 -110 -24 -14 -2 -41 -7 -60 -10 -71 -13 -225 -29 -275 -28
-17 1 -36 10 -47 22 -15 20 -17 39 -12 169 7 187 3 182 144 197 36 4 74 9 85
11 10 2 37 6 60 9 156 23 377 78 412 104 43 31 46 54 46 392 0 359 1 352 -75
394 -32 17 -43 18 -85 8 -157 -35 -296 -62 -348 -67 -152 -14 -184 -17 -250
-18 -38 -1 -79 3 -91 10 -14 8 -31 45 -58 129 -43 132 -111 310 -151 393 -15
30 -39 80 -53 110 -132 273 -353 592 -577 829 -256 272 -484 450 -860 674 -67
39 -297 147 -405 190 -151 59 -376 131 -477 152 -10 2 -38 8 -63 14 -25 5 -61
13 -80 16 -19 3 -42 8 -50 10 -8 2 -37 7 -65 11 -27 3 -52 8 -55 9 -3 2 -39 6
-80 10 -41 4 -88 9 -105 11 -45 6 -490 16 -495 11z m395 -881 c50 -4 115 -11
145 -16 30 -5 73 -12 95 -16 210 -31 471 -117 710 -234 489 -240 898 -640
1160 -1134 37 -70 38 -101 4 -127 -19 -14 -28 -14 -78 -2 -67 15 -325 70 -367
77 -233 39 -442 59 -639 59 -117 1 -343 -11 -354 -17 -3 -2 -33 -7 -66 -11
-83 -9 -183 -31 -297 -66 -75 -23 -103 -37 -123 -60 -14 -17 -26 -36 -26 -42
-6 -55 -3 -659 3 -683 17 -65 92 -100 167 -77 25 7 55 15 66 17 11 2 61 12
110 21 50 9 98 19 109 21 10 2 44 6 75 10 31 3 58 8 61 9 41 24 739 24 780 0
3 -1 30 -6 60 -9 122 -14 315 -61 500 -120 74 -24 167 -51 207 -61 105 -25
108 -30 106 -185 -1 -71 -7 -138 -13 -149 -20 -38 -53 -36 -288 22 -208 52
-290 69 -442 97 -82 15 -110 19 -165 26 -27 3 -61 7 -74 9 -157 25 -622 26
-787 2 -174 -26 -329 -65 -410 -103 -17 -8 -40 -31 -51 -52 -19 -35 -20 -55
-19 -368 1 -296 3 -333 19 -357 42 -64 91 -73 227 -40 47 12 101 24 120 27 19
3 47 8 63 11 61 11 84 15 137 21 30 3 66 7 79 9 135 22 567 21 711 -1 179 -28
306 -52 346 -65 17 -5 42 -12 55 -15 72 -16 213 -62 230 -76 33 -26 30 -51
-14 -138 -194 -378 -430 -662 -777 -933 -8 -7 -67 -47 -130 -89 -417 -279
-930 -433 -1435 -431 -115 0 -275 9 -335 19 -200 31 -273 46 -390 80 -100 29
-235 76 -244 85 -6 5 -16 9 -23 9 -24 0 -255 115 -363 180 -99 59 -277 187
-364 261 -50 43 -230 222 -275 275 -18 21 -71 89 -116 149 -273 366 -439 780
-500 1245 -23 169 -22 570 0 650 3 8 9 47 15 85 12 86 18 120 30 165 5 19 11
46 14 60 3 14 14 57 26 95 12 39 26 84 31 102 21 71 114 284 166 383 48 90
166 285 183 300 3 3 25 32 49 65 143 193 353 398 568 552 159 113 280 180 528
293 22 10 107 41 200 71 68 23 232 65 285 74 19 3 42 8 50 10 14 3 73 12 145
21 17 2 77 6 135 10 58 4 106 8 108 9 4 3 195 -2 287 -9z"/>
</g>
</svg>
